<svg xmlns="http://www.w3.org/2000/svg" viewBox="0 0 800 250">
  <style>
    text { font-family: Arial, sans-serif; }
    .header { font-weight: bold; font-size: 14px; }
    .title { font-weight: bold; font-size: 24px; }
  </style>
  
  <!-- Title -->
  <text x="250" y="40" class="title">Examples of Hypercharge States</text>

  <!-- Table headers -->
  <text x="50" y="80" class="header">Particle</text>
  <text x="150" y="80" class="header">-3</text>
  <text x="250" y="80" class="header">-2</text>
  <text x="350" y="80" class="header">-1</text>
  <text x="450" y="80" class="header">0</text>
  <text x="550" y="80" class="header">+1</text>
  <text x="650" y="80" class="header">+2</text>
  <text x="750" y="80" class="header">+3</text>

  <!-- Table lines -->
  <line x1="20" y1="90" x2="780" y2="90" stroke="black" />
  <line x1="20" y1="90" x2="20" y2="210" stroke="black" />
  <line x1="780" y1="90" x2="780" y2="210" stroke="black" />
  <line x1="20" y1="210" x2="780" y2="210" stroke="black" />

  <!-- Vertical lines -->
  <line x1="120" y1="90" x2="120" y2="210" stroke="black" />
  <line x1="220" y1="90" x2="220" y2="210" stroke="black" />
  <line x1="320" y1="90" x2="320" y2="210" stroke="black" />
  <line x1="420" y1="90" x2="420" y2="210" stroke="black" />
  <line x1="520" y1="90" x2="520" y2="210" stroke="black" />
  <line x1="620" y1="90" x2="620" y2="210" stroke="black" />
  <line x1="720" y1="90" x2="720" y2="210" stroke="black" />

  <!-- Row lines -->
  <line x1="20" y1="130" x2="780" y2="130" stroke="black" stroke-opacity="0.5" />
  <line x1="20" y1="170" x2="780" y2="170" stroke="black" stroke-opacity="0.5" />

  <!-- Particle rows -->
  <text x="50" y="120">Electron</text>
  <circle cx="370" cy="115" r="5" fill="black" />

  <text x="50" y="160">Up quark</text>
  <circle cx="470" cy="155" r="5" fill="black" />

  <text x="50" y="200">Neutrino</text>
  <circle cx="470" cy="195" r="5" fill="black" />

</svg>
