<svg version="1.1" viewBox="0.0 0.0 600.0 371.0" fill="none" stroke="none" stroke-linecap="square" stroke-miterlimit="10" width="600" height="371" xmlns:xlink="http://www.w3.org/1999/xlink" xmlns="http://www.w3.org/2000/svg"><path fill="#efefef" d="M0 0L600.0 0L600.0 371.0L0 371.0L0 0Z" fill-rule="nonzero"/><path stroke="#232323" stroke-width="1.0" stroke-linecap="butt" d="M42.5 317.5L581.5 317.5" fill-rule="nonzero"/><path stroke="#bcbcbc" stroke-width="1.0" stroke-linecap="butt" d="M42.5 253.5L581.5 253.5" fill-rule="nonzero"/><path stroke="#bcbcbc" stroke-width="1.0" stroke-linecap="butt" d="M42.5 189.5L581.5 189.5" fill-rule="nonzero"/><path stroke="#bcbcbc" stroke-width="1.0" stroke-linecap="butt" d="M42.5 125.5L581.5 125.5" fill-rule="nonzero"/><path stroke="#bcbcbc" stroke-width="1.0" stroke-linecap="butt" d="M42.5 60.5L581.5 60.5" fill-rule="nonzero"/><clipPath id="id_0"><path d="M42.55 60.916668L581.45 60.916668L581.45 317.88782L42.55 317.88782L42.55 60.916668Z" clip-rule="nonzero"/></clipPath><path stroke="#4285f4" stroke-width="2.0" stroke-linecap="butt" stroke-dasharray="2.0,3.0" clip-path="url(#id_0)" d="M49.372753 266.4936C49.372753 266.4936 136.8251 261.9059 164.20462 260.0693C191.58415 258.23273 226.08543 255.50795 246.34319 253.64503C266.60095 251.78212 291.70877 249.10583 307.11642 247.22075C322.5241 245.33568 341.34866 242.70045 353.33948 240.79648C365.33026 238.8925 379.79755 236.29248 389.31186 234.3722C398.8262 232.4519 410.17917 229.88243 417.85486 227.94792C425.53055 226.01341 434.5999 223.47066 440.8819 221.52364C447.16388 219.57663 454.52148 217.05745 459.7278 215.09937C464.93417 213.14127 470.98392 210.64307 475.34686 208.67508C479.70984 206.70709 484.7434 204.22766 488.4358 202.25081C492.12817 200.27394 496.36044 197.8114 499.51294 195.82652C502.66544 193.84166 506.25748 191.39438 508.97043 189.40224C511.68338 187.41011 514.7578 184.97673 517.1093 182.97797C519.46075 180.9792 522.11224 178.55852 524.16376 176.55368C526.2152 174.54886 528.51776 172.1398 530.31824 170.12941C532.11865 168.11902 534.1308 165.72066 535.7195 163.70512C537.3082 161.6896 539.0767 159.30112 540.4857 157.28085C541.89465 155.26057 543.4573 152.88124 544.7126 150.85657C545.96796 148.8319 547.35535 146.46106 548.4786 144.4323C549.60187 142.40352 550.8393 140.0406 551.8483 138.00801C552.8574 135.97543 553.9657 133.61989 554.87555 131.58374C555.7854 129.54758 556.78186 127.198944 557.6051 125.159454C558.42834 123.119965 559.3275 120.7778 560.0748 118.735176C560.8221 116.69255 561.6362 114.35647 562.3166 112.3109C562.99695 110.26533 563.73645 107.93497 564.35767 105.88662C564.97894 103.83827 565.65265 101.513306 566.2214 99.46234C566.7901 97.41137 567.4056 95.09151 567.92755 93.03806C568.4496 90.98462 569.0133 88.66957 569.4936 86.613785C569.9738 84.55799 570.4915 82.24752 570.9343 80.18951C571.3772 78.13149 571.85364 75.82535 572.2629 73.76522C572.6721 71.7051 573.11163 69.403076 573.49054 67.34094C573.86945 65.27882 574.62726 60.916668 574.62726 60.916668" fill-rule="nonzero"/><path fill="#4285f4" clip-path="url(#id_0)" d="M53.872753 266.4936C53.872753 268.97888 51.858032 270.9936 49.372753 270.9936C46.88747 270.9936 44.872753 268.97888 44.872753 266.4936C44.872753 264.0083 46.88747 261.9936 49.372753 261.9936C51.858032 261.9936 53.872753 264.0083 53.872753 266.4936Z" fill-rule="nonzero"/><path fill="#4285f4" clip-path="url(#id_0)" d="M168.70462 260.0693C168.70462 262.5546 166.68991 264.5693 164.20462 264.5693C161.71935 264.5693 159.70462 262.5546 159.70462 260.0693C159.70462 257.58405 161.71935 255.5693 164.20462 255.5693C166.68991 255.5693 168.70462 257.58405 168.70462 260.0693Z" fill-rule="nonzero"/><path fill="#4285f4" clip-path="url(#id_0)" d="M250.84319 253.64503C250.84319 256.1303 248.82848 258.14502 246.34319 258.14502C243.85791 258.14502 241.84319 256.1303 241.84319 253.64503C241.84319 251.15976 243.85791 249.14503 246.34319 249.14503C248.82848 249.14503 250.84319 251.15976 250.84319 253.64503Z" fill-rule="nonzero"/><path fill="#4285f4" clip-path="url(#id_0)" d="M311.61642 247.22075C311.61642 249.70604 309.6017 251.72075 307.11642 251.72075C304.63116 251.72075 302.61642 249.70604 302.61642 247.22075C302.61642 244.73547 304.63116 242.72075 307.11642 242.72075C309.6017 242.72075 311.61642 244.73547 311.61642 247.22075Z" fill-rule="nonzero"/><path fill="#4285f4" clip-path="url(#id_0)" d="M357.83948 240.79648C357.83948 243.28175 355.82477 245.29648 353.33948 245.29648C350.8542 245.29648 348.83948 243.28175 348.83948 240.79648C348.83948 238.31119 350.8542 236.29648 353.33948 236.29648C355.82477 236.29648 357.83948 238.31119 357.83948 240.79648Z" fill-rule="nonzero"/><path fill="#4285f4" clip-path="url(#id_0)" d="M393.81186 234.3722C393.81186 236.85748 391.79715 238.8722 389.31186 238.8722C386.8266 238.8722 384.81186 236.85748 384.81186 234.3722C384.81186 231.88692 386.8266 229.8722 389.31186 229.8722C391.79715 229.8722 393.81186 231.88692 393.81186 234.3722Z" fill-rule="nonzero"/><path fill="#4285f4" clip-path="url(#id_0)" d="M422.35486 227.94792C422.35486 230.4332 420.34015 232.44792 417.85486 232.44792C415.36957 232.44792 413.35486 230.4332 413.35486 227.94792C413.35486 225.46263 415.36957 223.44792 417.85486 223.44792C420.34015 223.44792 422.35486 225.46263 422.35486 227.94792Z" fill-rule="nonzero"/><path fill="#4285f4" clip-path="url(#id_0)" d="M445.3819 221.52364C445.3819 224.00893 443.36716 226.02364 440.8819 226.02364C438.3966 226.02364 436.3819 224.00893 436.3819 221.52364C436.3819 219.03836 438.3966 217.02364 440.8819 217.02364C443.36716 217.02364 445.3819 219.03836 445.3819 221.52364Z" fill-rule="nonzero"/><path fill="#4285f4" clip-path="url(#id_0)" d="M464.2278 215.09937C464.2278 217.58464 462.2131 219.59937 459.7278 219.59937C457.24255 219.59937 455.2278 217.58464 455.2278 215.09937C455.2278 212.61407 457.24255 210.59937 459.7278 210.59937C462.2131 210.59937 464.2278 212.61407 464.2278 215.09937Z" fill-rule="nonzero"/><path fill="#4285f4" clip-path="url(#id_0)" d="M479.84686 208.67508C479.84686 211.16037 477.83215 213.17508 475.34686 213.17508C472.8616 213.17508 470.84686 211.16037 470.84686 208.67508C470.84686 206.1898 472.8616 204.17508 475.34686 204.17508C477.83215 204.17508 479.84686 206.1898 479.84686 208.67508Z" fill-rule="nonzero"/><path fill="#4285f4" clip-path="url(#id_0)" d="M492.9358 202.25081C492.9358 204.73608 490.92108 206.75081 488.4358 206.75081C485.9505 206.75081 483.9358 204.73608 483.9358 202.25081C483.9358 199.76552 485.9505 197.75081 488.4358 197.75081C490.92108 197.75081 492.9358 199.76552 492.9358 202.25081Z" fill-rule="nonzero"/><path fill="#4285f4" clip-path="url(#id_0)" d="M504.01294 195.82652C504.01294 198.3118 501.99823 200.32652 499.51294 200.32652C497.02765 200.32652 495.01294 198.3118 495.01294 195.82652C495.01294 193.34125 497.02765 191.32652 499.51294 191.32652C501.99823 191.32652 504.01294 193.34125 504.01294 195.82652Z" fill-rule="nonzero"/><path fill="#4285f4" clip-path="url(#id_0)" d="M513.47046 189.40224C513.47046 191.88753 511.45572 193.90224 508.97043 193.90224C506.48517 193.90224 504.47043 191.88753 504.47043 189.40224C504.47043 186.91696 506.48517 184.90224 508.97043 184.90224C511.45572 184.90224 513.47046 186.91696 513.47046 189.40224Z" fill-rule="nonzero"/><path fill="#4285f4" clip-path="url(#id_0)" d="M521.6093 182.97797C521.6093 185.46324 519.5946 187.47797 517.1093 187.47797C514.624 187.47797 512.6093 185.46324 512.6093 182.97797C512.6093 180.49269 514.624 178.47797 517.1093 178.47797C519.5946 178.47797 521.6093 180.49269 521.6093 182.97797Z" fill-rule="nonzero"/><path fill="#4285f4" clip-path="url(#id_0)" d="M528.66376 176.55368C528.66376 179.03897 526.64905 181.05368 524.16376 181.05368C521.67847 181.05368 519.66376 179.03897 519.66376 176.55368C519.66376 174.0684 521.67847 172.05368 524.16376 172.05368C526.64905 172.05368 528.66376 174.0684 528.66376 176.55368Z" fill-rule="nonzero"/><path fill="#4285f4" clip-path="url(#id_0)" d="M534.81824 170.12941C534.81824 172.61469 532.80347 174.62941 530.31824 174.62941C527.83295 174.62941 525.81824 172.61469 525.81824 170.12941C525.81824 167.64412 527.83295 165.62941 530.31824 165.62941C532.80347 165.62941 534.81824 167.64412 534.81824 170.12941Z" fill-rule="nonzero"/><path fill="#4285f4" clip-path="url(#id_0)" d="M540.2195 163.70512C540.2195 166.19041 538.2048 168.20512 535.7195 168.20512C533.23425 168.20512 531.2195 166.19041 531.2195 163.70512C531.2195 161.21985 533.23425 159.20512 535.7195 159.20512C538.2048 159.20512 540.2195 161.21985 540.2195 163.70512Z" fill-rule="nonzero"/><path fill="#4285f4" clip-path="url(#id_0)" d="M544.9857 157.28085C544.9857 159.76613 542.971 161.78085 540.4857 161.78085C538.0004 161.78085 535.9857 159.76613 535.9857 157.28085C535.9857 154.79556 538.0004 152.78085 540.4857 152.78085C542.971 152.78085 544.9857 154.79556 544.9857 157.28085Z" fill-rule="nonzero"/><path fill="#4285f4" clip-path="url(#id_0)" d="M549.2126 150.85657C549.2126 153.34186 547.1979 155.35657 544.7126 155.35657C542.2273 155.35657 540.2126 153.34186 540.2126 150.85657C540.2126 148.37129 542.2273 146.35657 544.7126 146.35657C547.1979 146.35657 549.2126 148.37129 549.2126 150.85657Z" fill-rule="nonzero"/><path fill="#4285f4" clip-path="url(#id_0)" d="M552.9786 144.4323C552.9786 146.91757 550.96387 148.9323 548.4786 148.9323C545.99335 148.9323 543.9786 146.91757 543.9786 144.4323C543.9786 141.947 545.99335 139.9323 548.4786 139.9323C550.96387 139.9323 552.9786 141.947 552.9786 144.4323Z" fill-rule="nonzero"/><path fill="#4285f4" clip-path="url(#id_0)" d="M556.3483 138.00801C556.3483 140.4933 554.3336 142.50801 551.8483 142.50801C549.3631 142.50801 547.3483 140.4933 547.3483 138.00801C547.3483 135.52274 549.3631 133.50801 551.8483 133.50801C554.3336 133.50801 556.3483 135.52274 556.3483 138.00801Z" fill-rule="nonzero"/><path fill="#4285f4" clip-path="url(#id_0)" d="M559.37555 131.58374C559.37555 134.06902 557.36084 136.08374 554.87555 136.08374C552.39026 136.08374 550.37555 134.06902 550.37555 131.58374C550.37555 129.09845 552.39026 127.08373 554.87555 127.08373C557.36084 127.08373 559.37555 129.09845 559.37555 131.58374Z" fill-rule="nonzero"/><path fill="#4285f4" clip-path="url(#id_0)" d="M562.1051 125.159454C562.1051 127.64474 560.0904 129.65945 557.6051 129.65945C555.1198 129.65945 553.1051 127.64474 553.1051 125.159454C553.1051 122.67417 555.1198 120.659454 557.6051 120.659454C560.0904 120.659454 562.1051 122.67417 562.1051 125.159454Z" fill-rule="nonzero"/><path fill="#4285f4" clip-path="url(#id_0)" d="M564.5748 118.735176C564.5748 121.22046 562.56006 123.235176 560.0748 123.235176C557.58954 123.235176 555.5748 121.22046 555.5748 118.735176C555.5748 116.24989 557.58954 114.235176 560.0748 114.235176C562.56006 114.235176 564.5748 116.24989 564.5748 118.735176Z" fill-rule="nonzero"/><path fill="#4285f4" clip-path="url(#id_0)" d="M566.8166 112.3109C566.8166 114.79618 564.8019 116.8109 562.3166 116.8109C559.8313 116.8109 557.8166 114.79618 557.8166 112.3109C557.8166 109.825615 559.8313 107.8109 562.3166 107.8109C564.8019 107.8109 566.8166 109.825615 566.8166 112.3109Z" fill-rule="nonzero"/><path fill="#4285f4" clip-path="url(#id_0)" d="M568.85767 105.88662C568.85767 108.3719 566.84296 110.38662 564.35767 110.38662C561.87244 110.38662 559.85767 108.3719 559.85767 105.88662C559.85767 103.40134 561.87244 101.38662 564.35767 101.38662C566.84296 101.38662 568.85767 103.40134 568.85767 105.88662Z" fill-rule="nonzero"/><path fill="#4285f4" clip-path="url(#id_0)" d="M570.7214 99.46234C570.7214 101.947624 568.70667 103.96234 566.2214 103.96234C563.7361 103.96234 561.7214 101.947624 561.7214 99.46234C561.7214 96.97706 563.7361 94.96234 566.2214 94.96234C568.70667 94.96234 570.7214 96.97706 570.7214 99.46234Z" fill-rule="nonzero"/><path fill="#4285f4" clip-path="url(#id_0)" d="M572.42755 93.03806C572.42755 95.523346 570.41284 97.53806 567.92755 97.53806C565.44226 97.53806 563.42755 95.523346 563.42755 93.03806C563.42755 90.55278 565.44226 88.53806 567.92755 88.53806C570.41284 88.53806 572.42755 90.55278 572.42755 93.03806Z" fill-rule="nonzero"/><path fill="#4285f4" clip-path="url(#id_0)" d="M573.9936 86.613785C573.9936 89.09906 571.9789 91.113785 569.4936 91.113785C567.0083 91.113785 564.9936 89.09906 564.9936 86.613785C564.9936 84.1285 567.0083 82.113785 569.4936 82.113785C571.9789 82.113785 573.9936 84.1285 573.9936 86.613785Z" fill-rule="nonzero"/><path fill="#4285f4" clip-path="url(#id_0)" d="M575.4343 80.18951C575.4343 82.67478 573.4196 84.68951 570.9343 84.68951C568.4491 84.68951 566.4343 82.67478 566.4343 80.18951C566.4343 77.70422 568.4491 75.68951 570.9343 75.68951C573.4196 75.68951 575.4343 77.70422 575.4343 80.18951Z" fill-rule="nonzero"/><path fill="#4285f4" clip-path="url(#id_0)" d="M576.7629 73.76522C576.7629 76.2505 574.74817 78.26522 572.2629 78.26522C569.7776 78.26522 567.7629 76.2505 567.7629 73.76522C567.7629 71.279945 569.7776 69.26522 572.2629 69.26522C574.74817 69.26522 576.7629 71.279945 576.7629 73.76522Z" fill-rule="nonzero"/><path fill="#4285f4" clip-path="url(#id_0)" d="M577.99054 67.34094C577.99054 69.826225 575.9758 71.84094 573.49054 71.84094C571.00525 71.84094 568.99054 69.826225 568.99054 67.34094C568.99054 64.85567 571.00525 62.840946 573.49054 62.840946C575.9758 62.840946 577.99054 64.85567 577.99054 67.34094Z" fill-rule="nonzero"/><path fill="#4285f4" clip-path="url(#id_0)" d="M579.12726 60.916668C579.12726 63.401947 577.11255 65.416664 574.62726 65.416664C572.14197 65.416664 570.12726 63.401947 570.12726 60.916668C570.12726 58.431385 572.14197 56.416668 574.62726 56.416668C577.11255 56.416668 579.12726 58.431385 579.12726 60.916668Z" fill-rule="nonzero"/><path fill="#000000" d="M30.9875 317.96594Q30.9875 316.60657 31.39375 315.6222Q31.8 314.63782 32.4875 314.15344Q33.01875 313.77844 33.58125 313.77844Q34.4875 313.77844 35.221874 314.71594Q36.128124 315.85657 36.128124 317.84094Q36.128124 319.21594 35.721874 320.1847Q35.33125 321.15344 34.70625 321.59094Q34.096874 322.02844 33.51875 322.02844Q32.378124 322.02844 31.628124 320.6847Q30.9875 319.5597 30.9875 317.96594ZM32.128124 318.10657Q32.128124 319.7472 32.534374 320.77844Q32.878124 321.65344 33.534374 321.65344Q33.846874 321.65344 34.190624 321.3722Q34.534374 321.09094 34.70625 320.41907Q34.971874 319.41907 34.971874 317.57532Q34.971874 316.21594 34.690624 315.3097Q34.4875 314.63782 34.14375 314.35657Q33.909374 314.16907 33.565624 314.16907Q33.175 314.16907 32.8625 314.52844Q32.440624 315.01282 32.284374 316.0597Q32.128124 317.09094 32.128124 318.10657Z" fill-rule="nonzero"/><path fill="#000000" d="M19.95625 250.47314L21.89375 249.53564L22.08125 249.53564L22.08125 256.23877Q22.08125 256.91064 22.128124 257.08252Q22.190624 257.23877 22.3625 257.33252Q22.55 257.41064 23.08125 257.42627L23.08125 257.64502L20.096874 257.64502L20.096874 257.42627Q20.659374 257.41064 20.815624 257.33252Q20.9875 257.23877 21.05 257.09814Q21.1125 256.95752 21.1125 256.23877L21.1125 251.95752Q21.1125 251.08252 21.065624 250.84814Q21.01875 250.66064 20.909374 250.5669Q20.8 250.47314 20.64375 250.47314Q20.425 250.47314 20.05 250.66064L19.95625 250.47314ZM24.9875 253.72314Q24.9875 252.36377 25.39375 251.3794Q25.8 250.39502 26.4875 249.91064Q27.01875 249.53564 27.58125 249.53564Q28.4875 249.53564 29.221874 250.47314Q30.128124 251.61377 30.128124 253.59814Q30.128124 254.97314 29.721874 255.9419Q29.33125 256.91064 28.70625 257.34814Q28.096874 257.78564 27.51875 257.78564Q26.378124 257.78564 25.628124 256.4419Q24.9875 255.3169 24.9875 253.72314ZM26.128124 253.86377Q26.128124 255.5044 26.534374 256.53564Q26.878124 257.41064 27.534374 257.41064Q27.846874 257.41064 28.190624 257.1294Q28.534374 256.84814 28.70625 256.17627Q28.971874 255.17627 28.971874 253.33252Q28.971874 251.97314 28.690624 251.0669Q28.4875 250.39502 28.14375 250.11377Q27.909374 249.92627 27.565624 249.92627Q27.175 249.92627 26.8625 250.28564Q26.440624 250.77002 26.284374 251.8169Q26.128124 252.84814 26.128124 253.86377ZM30.9875 253.72314Q30.9875 252.36377 31.39375 251.3794Q31.8 250.39502 32.4875 249.91064Q33.01875 249.53564 33.58125 249.53564Q34.4875 249.53564 35.221874 250.47314Q36.128124 251.61377 36.128124 253.59814Q36.128124 254.97314 35.721874 255.9419Q35.33125 256.91064 34.70625 257.34814Q34.096874 257.78564 33.51875 257.78564Q32.378124 257.78564 31.628124 256.4419Q30.9875 255.3169 30.9875 253.72314ZM32.128124 253.86377Q32.128124 255.5044 32.534374 256.53564Q32.878124 257.41064 33.534374 257.41064Q33.846874 257.41064 34.190624 257.1294Q34.534374 256.84814 34.70625 256.17627Q34.971874 255.17627 34.971874 253.33252Q34.971874 251.97314 34.690624 251.0669Q34.4875 250.39502 34.14375 250.11377Q33.909374 249.92627 33.565624 249.92627Q33.175 249.92627 32.8625 250.28564Q32.440624 250.77002 32.284374 251.8169Q32.128124 252.84814 32.128124 253.86377Z" fill-rule="nonzero"/><path fill="#000000" d="M24.05 191.87099L23.503124 193.40224L18.815624 193.40224L18.815624 193.18349Q20.878124 191.29286 21.721874 190.10536Q22.565624 188.90224 22.565624 187.91786Q22.565624 187.16786 22.096874 186.68349Q21.64375 186.18349 20.9875 186.18349Q20.409374 186.18349 19.940624 186.52724Q19.471874 186.87099 19.253124 187.54286L19.034374 187.54286Q19.190624 186.44911 19.784374 185.87099Q20.39375 185.29286 21.3 185.29286Q22.26875 185.29286 22.909374 185.91786Q23.565624 186.52724 23.565624 187.37099Q23.565624 187.98036 23.284374 188.58974Q22.846874 189.52724 21.878124 190.58974Q20.425 192.18349 20.05 192.51161L22.128124 192.51161Q22.76875 192.51161 23.01875 192.46474Q23.26875 192.41786 23.471874 192.27724Q23.690624 192.13661 23.83125 191.87099L24.05 191.87099ZM24.9875 189.48036Q24.9875 188.12099 25.39375 187.13661Q25.8 186.15224 26.4875 185.66786Q27.01875 185.29286 27.58125 185.29286Q28.4875 185.29286 29.221874 186.23036Q30.128124 187.37099 30.128124 189.35536Q30.128124 190.73036 29.721874 191.69911Q29.33125 192.66786 28.70625 193.10536Q28.096874 193.54286 27.51875 193.54286Q26.378124 193.54286 25.628124 192.19911Q24.9875 191.07411 24.9875 189.48036ZM26.128124 189.62099Q26.128124 191.26161 26.534374 192.29286Q26.878124 193.16786 27.534374 193.16786Q27.846874 193.16786 28.190624 192.88661Q28.534374 192.60536 28.70625 191.93349Q28.971874 190.93349 28.971874 189.08974Q28.971874 187.73036 28.690624 186.82411Q28.4875 186.15224 28.14375 185.87099Q27.909374 185.68349 27.565624 185.68349Q27.175 185.68349 26.8625 186.04286Q26.440624 186.52724 26.284374 187.57411Q26.128124 188.60536 26.128124 189.62099ZM30.9875 189.48036Q30.9875 188.12099 31.39375 187.13661Q31.8 186.15224 32.4875 185.66786Q33.01875 185.29286 33.58125 185.29286Q34.4875 185.29286 35.221874 186.23036Q36.128124 187.37099 36.128124 189.35536Q36.128124 190.73036 35.721874 191.69911Q35.33125 192.66786 34.70625 193.10536Q34.096874 193.54286 33.51875 193.54286Q32.378124 193.54286 31.628124 192.19911Q30.9875 191.07411 30.9875 189.48036ZM32.128124 189.62099Q32.128124 191.26161 32.534374 192.29286Q32.878124 193.16786 33.534374 193.16786Q33.846874 193.16786 34.190624 192.88661Q34.534374 192.60536 34.70625 191.93349Q34.971874 190.93349 34.971874 189.08974Q34.971874 187.73036 34.690624 186.82411Q34.4875 186.15224 34.14375 185.87099Q33.909374 185.68349 33.565624 185.68349Q33.175 185.68349 32.8625 186.04286Q32.440624 186.52724 32.284374 187.57411Q32.128124 188.60536 32.128124 189.62099Z" fill-rule="nonzero"/><path fill="#000000" d="M19.159374 122.721954Q19.503124 121.92508 20.01875 121.48758Q20.534374 121.05008 21.315624 121.05008Q22.26875 121.05008 22.76875 121.67508Q23.159374 122.128204 23.159374 122.659454Q23.159374 123.534454 22.065624 124.45633Q22.8 124.73758 23.175 125.26883Q23.55 125.80008 23.55 126.534454Q23.55 127.565704 22.89375 128.3157Q22.05 129.30008 20.425 129.30008Q19.6125 129.30008 19.315624 129.09695Q19.034374 128.89383 19.034374 128.67508Q19.034374 128.5032 19.175 128.3782Q19.315624 128.23758 19.503124 128.23758Q19.659374 128.23758 19.8 128.28445Q19.909374 128.3157 20.253124 128.5032Q20.6125 128.6907 20.7375 128.72195Q20.95625 128.78445 21.20625 128.78445Q21.8 128.78445 22.2375 128.33133Q22.690624 127.86258 22.690624 127.23758Q22.690624 126.76883 22.4875 126.33133Q22.33125 126.003204 22.14375 125.83133Q21.89375 125.596954 21.45625 125.409454Q21.01875 125.221954 20.565624 125.221954L20.378124 125.221954L20.378124 125.034454Q20.83125 124.98758 21.3 124.70633Q21.76875 124.42508 21.971874 124.05008Q22.190624 123.659454 22.190624 123.190704Q22.190624 122.596954 21.815624 122.221954Q21.440624 121.846954 20.878124 121.846954Q19.95625 121.846954 19.346874 122.815704L19.159374 122.721954ZM24.9875 125.23758Q24.9875 123.878204 25.39375 122.89383Q25.8 121.909454 26.4875 121.42508Q27.01875 121.05008 27.58125 121.05008Q28.4875 121.05008 29.221874 121.98758Q30.128124 123.128204 30.128124 125.11258Q30.128124 126.48758 29.721874 127.45633Q29.33125 128.42508 28.70625 128.86258Q28.096874 129.30008 27.51875 129.30008Q26.378124 129.30008 25.628124 127.95633Q24.9875 126.83133 24.9875 125.23758ZM26.128124 125.378204Q26.128124 127.01883 26.534374 128.05008Q26.878124 128.92508 27.534374 128.92508Q27.846874 128.92508 28.190624 128.64383Q28.534374 128.36258 28.70625 127.690704Q28.971874 126.690704 28.971874 124.846954Q28.971874 123.48758 28.690624 122.58133Q28.4875 121.909454 28.14375 121.628204Q27.909374 121.440704 27.565624 121.440704Q27.175 121.440704 26.8625 121.80008Q26.440624 122.284454 26.284374 123.33133Q26.128124 124.36258 26.128124 125.378204ZM30.9875 125.23758Q30.9875 123.878204 31.39375 122.89383Q31.8 121.909454 32.4875 121.42508Q33.01875 121.05008 33.58125 121.05008Q34.4875 121.05008 35.221874 121.98758Q36.128124 123.128204 36.128124 125.11258Q36.128124 126.48758 35.721874 127.45633Q35.33125 128.42508 34.70625 128.86258Q34.096874 129.30008 33.51875 129.30008Q32.378124 129.30008 31.628124 127.95633Q30.9875 126.83133 30.9875 125.23758ZM32.128124 125.378204Q32.128124 127.01883 32.534374 128.05008Q32.878124 128.92508 33.534374 128.92508Q33.846874 128.92508 34.190624 128.64383Q34.534374 128.36258 34.70625 127.690704Q34.971874 126.690704 34.971874 124.846954Q34.971874 123.48758 34.690624 122.58133Q34.4875 121.909454 34.14375 121.628204Q33.909374 121.440704 33.565624 121.440704Q33.175 121.440704 32.8625 121.80008Q32.440624 122.284454 32.284374 123.33133Q32.128124 124.36258 32.128124 125.378204Z" fill-rule="nonzero"/><path fill="#000000" d="M24.128124 61.979164L24.128124 62.822914L23.065624 62.822914L23.065624 64.916664L22.096874 64.916664L22.096874 62.822914L18.7375 62.822914L18.7375 62.072914L22.425 56.80729L23.065624 56.80729L23.065624 61.979164L24.128124 61.979164ZM22.096874 61.979164L22.096874 58.041664L19.315624 61.979164L22.096874 61.979164ZM24.9875 60.99479Q24.9875 59.635414 25.39375 58.65104Q25.8 57.666664 26.4875 57.18229Q27.01875 56.80729 27.58125 56.80729Q28.4875 56.80729 29.221874 57.74479Q30.128124 58.885414 30.128124 60.86979Q30.128124 62.24479 29.721874 63.21354Q29.33125 64.18229 28.70625 64.61979Q28.096874 65.05729 27.51875 65.05729Q26.378124 65.05729 25.628124 63.71354Q24.9875 62.58854 24.9875 60.99479ZM26.128124 61.135414Q26.128124 62.77604 26.534374 63.80729Q26.878124 64.68229 27.534374 64.68229Q27.846874 64.68229 28.190624 64.40104Q28.534374 64.11979 28.70625 63.447914Q28.971874 62.447914 28.971874 60.604164Q28.971874 59.24479 28.690624 58.33854Q28.4875 57.666664 28.14375 57.385414Q27.909374 57.197914 27.565624 57.197914Q27.175 57.197914 26.8625 57.55729Q26.440624 58.041664 26.284374 59.08854Q26.128124 60.11979 26.128124 61.135414ZM30.9875 60.99479Q30.9875 59.635414 31.39375 58.65104Q31.8 57.666664 32.4875 57.18229Q33.01875 56.80729 33.58125 56.80729Q34.4875 56.80729 35.221874 57.74479Q36.128124 58.885414 36.128124 60.86979Q36.128124 62.24479 35.721874 63.21354Q35.33125 64.18229 34.70625 64.61979Q34.096874 65.05729 33.51875 65.05729Q32.378124 65.05729 31.628124 63.71354Q30.9875 62.58854 30.9875 60.99479ZM32.128124 61.135414Q32.128124 62.77604 32.534374 63.80729Q32.878124 64.68229 33.534374 64.68229Q33.846874 64.68229 34.190624 64.40104Q34.534374 64.11979 34.70625 63.447914Q34.971874 62.447914 34.971874 60.604164Q34.971874 59.24479 34.690624 58.33854Q34.4875 57.666664 34.14375 57.385414Q33.909374 57.197914 33.565624 57.197914Q33.175 57.197914 32.8625 57.55729Q32.440624 58.041664 32.284374 59.08854Q32.128124 60.11979 32.128124 61.135414Z" fill-rule="nonzero"/><path fill="#000000" d="M476.4794 352.29892Q475.7997 351.12167 475.65936 350.06604Q475.51898 349.01044 475.8722 348.2472Q476.14478 347.6568 476.63193 347.37555Q477.41675 346.92242 478.52148 347.36716Q479.87665 347.90182 480.86884 349.62036Q481.55634 350.81113 481.68887 351.8532Q481.83496 352.8875 481.51245 353.5789Q481.20346 354.26245 480.7028 354.5515Q479.71497 355.12183 478.3936 354.3331Q477.27628 353.67914 476.4794 352.29892ZM477.53754 351.8504Q478.35785 353.2712 479.2253 353.96118Q479.96048 354.5471 480.5288 354.21896Q480.79947 354.0627 480.9565 353.64725Q481.1136 353.2318 480.9265 352.56403Q480.65656 351.5652 479.73468 349.96844Q479.055 348.7912 478.35828 348.14697Q477.84644 347.6667 477.4081 347.59497Q477.1114 347.5498 476.8137 347.72168Q476.4754 347.917 476.38446 348.38446Q476.2613 349.01486 476.6494 349.99963Q477.02972 350.97083 477.53754 351.8504ZM483.98633 351.1763Q484.22992 351.03568 484.49387 351.11783Q484.74997 351.18646 484.88278 351.4165Q485.0156 351.64655 484.94125 351.924Q484.87262 352.18015 484.64258 352.31296Q484.41257 352.44577 484.14288 352.38495Q483.87894 352.3028 483.74612 352.07275Q483.6055 351.8292 483.67413 351.57306Q483.75632 351.3091 483.98633 351.1763ZM484.27365 347.79892Q483.59396 346.62167 483.45358 345.56604Q483.31323 344.51044 483.66644 343.7472Q483.939 343.1568 484.42615 342.87555Q485.21097 342.42242 486.3157 342.86716Q487.67087 343.40182 488.66306 345.12036Q489.35056 346.31113 489.4831 347.3532Q489.62918 348.3875 489.30667 349.0789Q488.99768 349.76245 488.497 350.0515Q487.50922 350.62183 486.1878 349.8331Q485.07053 349.17914 484.27365 347.79892ZM485.33176 347.3504Q486.15207 348.7712 487.01953 349.46118Q487.75473 350.0471 488.32306 349.71896Q488.5937 349.5627 488.75076 349.14725Q488.90784 348.7318 488.72073 348.06403Q488.45078 347.0652 487.5289 345.46844Q486.8492 344.2912 486.15253 343.64697Q485.64066 343.1667 485.20236 343.09497Q484.9056 343.0498 484.60794 343.22168Q484.26962 343.417 484.17868 343.88446Q484.0555 344.51486 484.44363 345.49963Q484.82394 346.47083 485.33176 347.3504ZM489.4698 344.79892Q488.7901 343.62167 488.64975 342.56604Q488.50937 341.51044 488.86258 340.7472Q489.13516 340.1568 489.62228 339.87555Q490.40714 339.42242 491.51187 339.86716Q492.867 340.40182 493.8592 342.12036Q494.5467 343.31113 494.67926 344.3532Q494.82535 345.3875 494.50284 346.0789Q494.19385 346.76245 493.69318 347.0515Q492.70535 347.62183 491.38397 346.8331Q490.26666 346.17914 489.4698 344.79892ZM490.52792 344.3504Q491.34824 345.7712 492.21567 346.46118Q492.95087 347.0471 493.5192 346.71896Q493.78983 346.5627 493.9469 346.14725Q494.10397 345.7318 493.9169 345.06403Q493.64694 344.0652 492.72507 342.46844Q492.04538 341.2912 491.34866 340.64697Q490.83682 340.1667 490.3985 340.09497Q490.10178 340.0498 489.80408 340.22168Q489.4658 340.417 489.37485 340.88446Q489.25168 341.51486 489.6398 342.49963Q490.0201 343.47083 490.52792 344.3504ZM494.66595 341.79892Q493.98627 340.62167 493.8459 339.56604Q493.70554 338.51044 494.05875 337.7472Q494.3313 337.1568 494.81845 336.87555Q495.60327 336.42242 496.70804 336.86716Q498.06317 337.40182 499.05536 339.12036Q499.74286 340.31113 499.8754 341.3532Q500.02148 342.3875 499.69897 343.0789Q499.38998 343.76245 498.8893 344.0515Q497.90152 344.62183 496.5801 343.8331Q495.46283 343.17914 494.66595 341.79892ZM495.72406 341.3504Q496.54437 342.7712 497.41183 343.46118Q498.14703 344.0471 498.71536 343.71896Q498.986 343.5627 499.14307 343.14725Q499.30014 342.7318 499.11304 342.06403Q498.84308 341.0652 497.9212 339.46844Q497.24152 338.2912 496.54483 337.64697Q496.03296 337.1667 495.59467 337.09497Q495.2979 337.0498 495.00024 337.22168Q494.66193 337.417 494.57098 337.88446Q494.4478 338.51486 494.83594 339.49963Q495.21625 340.47083 495.72406 341.3504ZM499.8621 338.79892Q499.1824 337.62167 499.04205 336.56604Q498.90167 335.51044 499.25488 334.7472Q499.52747 334.1568 500.0146 333.87555Q500.79944 333.42242 501.90417 333.86716Q503.25934 334.40182 504.25153 336.12036Q504.93903 337.31113 505.07156 338.3532Q505.21765 339.3875 504.89514 340.0789Q504.58615 340.76245 504.08548 341.0515Q503.09766 341.62183 501.77628 340.8331Q500.65897 340.17914 499.8621 338.79892ZM500.92023 338.3504Q501.74054 339.7712 502.60797 340.46118Q503.34317 341.0471 503.9115 340.71896Q504.18213 340.5627 504.3392 340.14725Q504.49628 339.7318 504.3092 339.06403Q504.03925 338.0652 503.11737 336.46844Q502.43768 335.2912 501.74097 334.64697Q501.22913 334.1667 500.7908 334.09497Q500.49408 334.0498 500.19638 334.22168Q499.8581 334.417 499.76715 334.88446Q499.64398 335.51486 500.0321 336.49963Q500.4124 337.47083 500.92023 338.3504ZM510.63782 335.338L510.92984 336.93756L506.87033 339.2813L506.76096 339.09186Q507.60184 336.42328 507.7388 334.973Q507.86795 333.5092 507.37576 332.65668Q507.00076 332.00717 506.3526 331.82205Q505.7102 331.61563 505.14188 331.94376Q504.6412 332.23282 504.4071 332.76486Q504.17303 333.29694 504.31955 333.9882L504.1301 334.09756Q503.71854 333.0722 503.94366 332.27466Q504.18234 331.4693 504.9672 331.01617Q505.80615 330.5318 506.67343 330.75278Q507.54645 330.95236 507.96832 331.68307Q508.273 332.21082 508.33414 332.87918Q508.424 333.90982 508.1163 335.31436Q507.65472 337.42114 507.49402 337.89282L509.29373 336.85376Q509.84854 336.53345 510.0416 336.36783Q510.23468 336.20224 510.34027 335.97888Q510.4594 335.74774 510.44836 335.4474L510.63782 335.338ZM512.3659 326.92493L512.4735 328.01752L510.40317 329.21283L510.48788 330.3908Q511.9447 329.82034 513.1905 330.1656Q514.2655 330.4651 514.80457 331.39877Q515.11707 331.94003 515.174 332.53864Q515.2231 333.12372 515.0723 333.64377Q514.9215 334.16385 514.62494 334.58768Q514.20715 335.20776 513.5847 335.56714Q512.9622 335.9265 512.5609 335.8876Q512.1652 335.82736 512.0168 335.57025Q511.9387 335.43494 511.98444 335.2642Q512.0359 335.07208 512.21185 334.97052Q512.34717 334.8924 512.4653 334.8783Q512.597 334.8564 512.9286 334.8995Q513.45593 334.93784 513.8483 334.71127Q514.4437 334.36752 514.63245 333.66318Q514.82117 332.95883 514.44617 332.3093Q514.0868 331.68686 513.36835 331.37994Q512.66345 331.06525 511.79575 331.18735Q511.10812 331.27762 510.13748 331.7839L509.90317 328.3468L512.3659 326.92493Z" fill-rule="nonzero"/><path fill="#000000" d="M394.13315 349.29892Q393.45346 348.12167 393.31308 347.06604Q393.17273 346.01044 393.52594 345.2472Q393.79852 344.6568 394.28564 344.37555Q395.0705 343.92242 396.17523 344.36716Q397.53036 344.90182 398.52255 346.62036Q399.21005 347.81113 399.34262 348.85324Q399.4887 349.8875 399.16617 350.5789Q398.8572 351.26245 398.35654 351.5515Q397.3687 352.12183 396.04733 351.33313Q394.93002 350.67914 394.13315 349.29892ZM395.19128 348.8504Q396.0116 350.2712 396.87903 350.96118Q397.61423 351.5471 398.18256 351.21896Q398.4532 351.0627 398.61026 350.64725Q398.76733 350.2318 398.58023 349.56403Q398.31027 348.5652 397.3884 346.96844Q396.7087 345.7912 396.01202 345.14697Q395.50018 344.6667 395.06186 344.59497Q394.76514 344.5498 394.46744 344.72168Q394.12915 344.917 394.0382 345.38446Q393.91504 346.01486 394.30316 346.99963Q394.68347 347.97083 395.19128 348.8504ZM401.64008 348.1763Q401.88364 348.03568 402.14758 348.11783Q402.40372 348.18646 402.53653 348.4165Q402.66934 348.64655 402.595 348.924Q402.52637 349.18015 402.29633 349.31296Q402.06628 349.44577 401.79663 349.38495Q401.53268 349.3028 401.39987 349.07275Q401.25925 348.8292 401.32788 348.57306Q401.41003 348.3091 401.64008 348.1763ZM401.92737 344.79892Q401.24768 343.62167 401.10733 342.56604Q400.96695 341.51044 401.32016 340.7472Q401.59274 340.1568 402.07986 339.87555Q402.86472 339.42242 403.96945 339.86716Q405.3246 340.40182 406.31677 342.12036Q407.00427 343.31113 407.13684 344.35324Q407.28293 345.3875 406.96042 346.0789Q406.65143 346.76245 406.15076 347.0515Q405.16293 347.62183 403.84155 346.83313Q402.72424 346.17914 401.92737 344.79892ZM402.9855 344.3504Q403.80582 345.7712 404.67325 346.46118Q405.40845 347.0471 405.97678 346.71896Q406.2474 346.5627 406.40448 346.14725Q406.56155 345.7318 406.37448 345.06403Q406.10452 344.0652 405.18265 342.46844Q404.50296 341.2912 403.80624 340.64697Q403.2944 340.1667 402.85608 340.09497Q402.55936 340.0498 402.26166 340.22168Q401.92337 340.417 401.83243 340.88446Q401.70926 341.51486 402.09738 342.49963Q402.4777 343.47083 402.9855 344.3504ZM407.12354 341.79892Q406.44385 340.62167 406.30347 339.56604Q406.16312 338.51044 406.51633 337.7472Q406.78888 337.1568 407.27603 336.87555Q408.06085 336.42242 409.16562 336.86716Q410.52075 337.40182 411.51294 339.12036Q412.20044 340.31113 412.33298 341.35324Q412.47906 342.3875 412.15656 343.0789Q411.84756 343.76245 411.3469 344.0515Q410.3591 344.62183 409.0377 343.83313Q407.9204 343.17914 407.12354 341.79892ZM408.18164 341.3504Q409.00195 342.7712 409.86942 343.46118Q410.6046 344.0471 411.17294 343.71896Q411.44357 343.5627 411.60065 343.14725Q411.75772 342.7318 411.57062 342.06403Q411.30066 341.0652 410.37878 339.46844Q409.6991 338.2912 409.0024 337.64697Q408.49054 337.1667 408.05225 337.09497Q407.7555 337.0498 407.45782 337.22168Q407.1195 337.417 407.02856 337.88446Q406.9054 338.51486 407.29352 339.49963Q407.67383 340.47083 408.18164 341.3504ZM412.31967 338.79892Q411.63998 337.62167 411.49963 336.56604Q411.35925 335.51044 411.71246 334.7472Q411.98505 334.1568 412.4722 333.87555Q413.25702 333.42242 414.36176 333.86716Q415.71692 334.40182 416.7091 336.12036Q417.3966 337.31113 417.52914 338.35324Q417.67523 339.3875 417.35272 340.0789Q417.04373 340.76245 416.54306 341.0515Q415.55524 341.62183 414.23386 340.83313Q413.11655 340.17914 412.31967 338.79892ZM413.3778 338.3504Q414.19812 339.7712 415.06555 340.46118Q415.80075 341.0471 416.36908 340.71896Q416.6397 340.5627 416.79678 340.14725Q416.95386 339.7318 416.76678 339.06403Q416.49683 338.0652 415.57495 336.46844Q414.89526 335.2912 414.19855 334.64697Q413.6867 334.1667 413.24838 334.09497Q412.95166 334.0498 412.65396 334.22168Q412.31567 334.417 412.22473 334.88446Q412.10156 335.51486 412.4897 336.49963Q412.87 337.47083 413.3778 338.3504ZM417.51584 335.79892Q416.83615 334.62167 416.69577 333.56604Q416.55542 332.51044 416.90863 331.7472Q417.18118 331.1568 417.66833 330.87555Q418.4532 330.42242 419.55792 330.86716Q420.91306 331.40182 421.90524 333.12036Q422.59274 334.31113 422.7253 335.35324Q422.87137 336.3875 422.54886 337.0789Q422.23987 337.76245 421.7392 338.0515Q420.7514 338.62183 419.43 337.83313Q418.3127 337.17914 417.51584 335.79892ZM418.57394 335.3504Q419.39426 336.7712 420.26172 337.46118Q420.99692 338.0471 421.56525 337.71896Q421.83588 337.5627 421.99295 337.14725Q422.15002 336.7318 421.96292 336.06403Q421.69296 335.0652 420.7711 333.46844Q420.0914 332.2912 419.3947 331.64697Q418.88287 331.1667 418.44455 331.09497Q418.14783 331.0498 417.85013 331.22168Q417.51184 331.417 417.42087 331.88446Q417.2977 332.51486 417.68582 333.49963Q418.06613 334.47083 418.57394 335.3504ZM424.82352 326.92496L424.9311 328.01752L422.86075 329.21283L422.94547 330.3908Q424.40228 329.82034 425.64804 330.1656Q426.72308 330.4651 427.26215 331.39877Q427.57465 331.94003 427.63156 332.53864Q427.6807 333.12372 427.5299 333.64377Q427.3791 334.16385 427.08252 334.58768Q426.66473 335.20776 426.04227 335.56714Q425.41983 335.9265 425.01846 335.8876Q424.62283 335.82736 424.4744 335.57025Q424.39627 335.43494 424.44202 335.2642Q424.4935 335.07208 424.6694 334.97052Q424.80472 334.8924 424.92288 334.8783Q425.05457 334.8564 425.38617 334.8995Q425.91348 334.93787 426.3059 334.7113Q426.9013 334.36755 427.09003 333.66318Q427.27878 332.95883 426.90378 332.3093Q426.5444 331.68686 425.82596 331.37997Q425.12103 331.06525 424.25333 331.18735Q423.5657 331.27762 422.59506 331.7839L422.36075 328.34683L424.82352 326.92496Z" fill-rule="nonzero"/><path fill="#000000" d="M301.3946 352.29892Q300.7149 351.12164 300.57455 350.06604Q300.43417 349.0104 300.78738 348.2472Q301.05997 347.6568 301.54712 347.37555Q302.33194 346.92242 303.43668 347.36713Q304.79184 347.90182 305.78403 349.62033Q306.47153 350.81113 306.60406 351.8532Q306.75015 352.88748 306.42764 353.5789Q306.11865 354.26245 305.61798 354.5515Q304.63016 355.12183 303.30878 354.3331Q302.19147 353.67914 301.3946 352.29892ZM302.45273 351.85037Q303.27304 353.2712 304.14047 353.96118Q304.87567 354.54706 305.444 354.21893Q305.71463 354.06268 305.8717 353.64725Q306.02878 353.2318 305.8417 352.564Q305.57175 351.56516 304.64987 349.9684Q303.97018 348.79117 303.27347 348.14697Q302.76163 347.66666 302.3233 347.59497Q302.02658 347.54977 301.72888 347.72165Q301.3906 347.91696 301.29965 348.38443Q301.17648 349.01486 301.5646 349.9996Q301.94492 350.97083 302.45273 351.85037ZM308.90152 351.1763Q309.1451 351.03568 309.40906 351.11783Q309.66516 351.18646 309.79797 351.4165Q309.9308 351.64655 309.85645 351.924Q309.7878 352.18015 309.55777 352.31296Q309.32773 352.44577 309.05807 352.38495Q308.79413 352.3028 308.66132 352.07275Q308.5207 351.82916 308.58932 351.57306Q308.67148 351.3091 308.90152 351.1763ZM309.18884 347.79892Q308.50916 346.62164 308.36877 345.56604Q308.22842 344.5104 308.5816 343.7472Q308.8542 343.1568 309.34134 342.87555Q310.12616 342.42242 311.2309 342.86713Q312.58606 343.40182 313.57825 345.12033Q314.26575 346.31113 314.3983 347.3532Q314.54437 348.38748 314.22186 349.0789Q313.91287 349.76245 313.4122 350.0515Q312.4244 350.62183 311.103 349.8331Q309.98572 349.17914 309.18884 347.79892ZM310.24695 347.35037Q311.06726 348.7712 311.93472 349.46118Q312.66992 350.04706 313.23825 349.71893Q313.50888 349.56268 313.66595 349.14725Q313.82303 348.7318 313.63593 348.064Q313.36597 347.06516 312.4441 345.4684Q311.7644 344.29117 311.06772 343.64697Q310.55585 343.16666 310.11752 343.09497Q309.8208 343.04977 309.5231 343.22165Q309.1848 343.41696 309.09387 343.88443Q308.9707 344.51486 309.35883 345.4996Q309.73914 346.47083 310.24695 347.35037ZM314.38498 344.79892Q313.7053 343.62164 313.56494 342.56604Q313.42456 341.5104 313.77777 340.7472Q314.05035 340.1568 314.53748 339.87555Q315.32233 339.42242 316.42706 339.86713Q317.7822 340.40182 318.77438 342.12033Q319.46188 343.31113 319.59445 344.3532Q319.74054 345.38748 319.41803 346.0789Q319.10904 346.76245 318.60837 347.0515Q317.62054 347.62183 316.29916 346.8331Q315.18185 346.17914 314.38498 344.79892ZM315.4431 344.35037Q316.26343 345.7712 317.13086 346.46118Q317.86606 347.04706 318.4344 346.71893Q318.70502 346.56268 318.8621 346.14725Q319.01917 345.7318 318.8321 345.064Q318.5621 344.06516 317.64023 342.4684Q316.96054 341.29117 316.26385 340.64697Q315.752 340.16666 315.3137 340.09497Q315.01697 340.04977 314.71927 340.22165Q314.38098 340.41696 314.29004 340.88443Q314.16687 341.51486 314.555 342.4996Q314.9353 343.47083 315.4431 344.35037ZM319.58115 341.79892Q318.90146 340.62164 318.76108 339.56604Q318.62073 338.5104 318.97394 337.7472Q319.2465 337.1568 319.73364 336.87555Q320.51846 336.42242 321.6232 336.86713Q322.97836 337.40182 323.97055 339.12033Q324.65805 340.31113 324.7906 341.3532Q324.93668 342.38748 324.61417 343.0789Q324.30518 343.76245 323.8045 344.0515Q322.8167 344.62183 321.4953 343.8331Q320.37802 343.17914 319.58115 341.79892ZM320.63925 341.35037Q321.45956 342.7712 322.32703 343.46118Q323.06223 344.04706 323.63055 343.71893Q323.90118 343.56268 324.05826 343.14725Q324.21533 342.7318 324.02823 342.064Q323.75827 341.06516 322.8364 339.4684Q322.1567 338.29117 321.46002 337.64697Q320.94815 337.16666 320.50983 337.09497Q320.2131 337.04977 319.9154 337.22165Q319.57712 337.41696 319.48618 337.88443Q319.363 338.51486 319.75113 339.4996Q320.13144 340.47083 320.63925 341.35037ZM324.77728 338.79892Q324.0976 337.62164 323.95724 336.56604Q323.81686 335.5104 324.17007 334.7472Q324.44266 334.1568 324.92978 333.87555Q325.71463 333.42242 326.81937 333.86713Q328.1745 334.40182 329.1667 336.12033Q329.8542 337.31113 329.98676 338.3532Q330.13284 339.38748 329.81033 340.0789Q329.50134 340.76245 329.00067 341.0515Q328.01285 341.62183 326.69147 340.8331Q325.57416 340.17914 324.77728 338.79892ZM325.83542 338.35037Q326.65573 339.7712 327.52316 340.46118Q328.25836 341.04706 328.8267 340.71893Q329.09732 340.56268 329.2544 340.14725Q329.41147 339.7318 329.2244 339.064Q328.9544 338.06516 328.03253 336.4684Q327.35284 335.29117 326.65616 334.64697Q326.14432 334.16666 325.706 334.09497Q325.40927 334.04977 325.11157 334.22165Q324.7733 334.41696 324.68234 334.88443Q324.55917 335.51486 324.9473 336.4996Q325.3276 337.47083 325.83542 338.35037ZM328.62088 331.92493L332.315 329.7921L332.4322 329.9951L334.07712 338.1567L333.5088 338.48483L331.9875 331.09982L330.09305 332.19357Q329.52472 332.5217 329.35928 332.79764Q329.0726 333.26987 329.08322 333.91327L328.91666 333.93726L328.62088 331.92493ZM337.28113 326.92493L337.3887 328.01752L335.31836 329.21283L335.40308 330.3908Q336.8599 329.82034 338.10565 330.1656Q339.18066 330.46506 339.71973 331.39874Q340.03223 331.94 340.08917 332.53864Q340.1383 333.1237 339.9875 333.64377Q339.8367 334.16385 339.54013 334.58765Q339.12234 335.20776 338.49988 335.56714Q337.8774 335.9265 337.47607 335.8876Q337.08044 335.82733 336.932 335.57025Q336.85388 335.43494 336.89963 335.26416Q336.9511 335.07208 337.127 334.97052Q337.26233 334.8924 337.3805 334.8783Q337.51218 334.85638 337.84378 334.89948Q338.3711 334.93784 338.76352 334.71127Q339.35892 334.36752 339.54764 333.66318Q339.7364 332.9588 339.3614 332.3093Q339.002 331.68683 338.28357 331.37994Q337.57864 331.06525 336.71094 331.18732Q336.02332 331.27762 335.05267 331.78387L334.81836 328.3468L337.28113 326.92493Z" fill-rule="nonzero"/><path fill="#000000" d="M224.24448 346.29892Q223.56479 345.12167 223.42442 344.06604Q223.28406 343.01044 223.63727 342.2472Q223.90984 341.6568 224.39697 341.37555Q225.18181 340.92242 226.28654 341.36716Q227.6417 341.90182 228.63388 343.62036Q229.32138 344.81113 229.45393 345.8532Q229.60002 346.8875 229.27751 347.5789Q228.96852 348.26245 228.46785 348.5515Q227.48004 349.12183 226.15865 348.3331Q225.04135 347.67914 224.24448 346.29892ZM225.3026 345.8504Q226.12291 347.2712 226.99036 347.96118Q227.72556 348.54706 228.29388 348.21893Q228.56451 348.06268 228.72159 347.64725Q228.87866 347.2318 228.69157 346.564Q228.4216 345.5652 227.49973 343.96844Q226.82004 342.7912 226.12335 342.14697Q225.6115 341.6667 225.17319 341.59497Q224.87645 341.54977 224.57877 341.72165Q224.24046 341.91696 224.14952 342.38446Q224.02635 343.01486 224.41447 343.9996Q224.79478 344.97083 225.3026 345.8504ZM231.7514 345.1763Q231.99498 345.03568 232.25891 345.11783Q232.51505 345.18646 232.64786 345.4165Q232.78067 345.64655 232.70633 345.924Q232.6377 346.18015 232.40765 346.31296Q232.17761 346.44577 231.90796 346.38495Q231.64401 346.3028 231.5112 346.07275Q231.37057 345.8292 231.43921 345.57306Q231.52136 345.3091 231.7514 345.1763ZM232.0387 341.79892Q231.35901 340.62167 231.21866 339.56604Q231.0783 338.51044 231.43149 337.7472Q231.70407 337.1568 232.19121 336.87555Q232.97604 336.42242 234.08078 336.86716Q235.43593 337.40182 236.42812 339.12036Q237.11562 340.31113 237.24817 341.3532Q237.39426 342.3875 237.07173 343.0789Q236.76276 343.76245 236.26208 344.0515Q235.27428 344.62183 233.95288 343.8331Q232.83557 343.17914 232.0387 341.79892ZM233.09683 341.3504Q233.91714 342.7712 234.78459 343.46118Q235.51978 344.04706 236.0881 343.71893Q236.35875 343.56268 236.51582 343.14725Q236.67288 342.7318 236.4858 342.064Q236.21584 341.0652 235.29396 339.46844Q234.61427 338.2912 233.91757 337.64697Q233.40573 337.1667 232.9674 337.09497Q232.67068 337.04977 232.37299 337.22165Q232.0347 337.41696 231.94376 337.88446Q231.82059 338.51486 232.20871 339.4996Q232.58902 340.47083 233.09683 341.3504ZM237.23486 338.79892Q236.55518 337.62167 236.41481 336.56604Q236.27444 335.51044 236.62764 334.7472Q236.90022 334.1568 237.38736 333.87555Q238.1722 333.42242 239.27693 333.86716Q240.63208 334.40182 241.62427 336.12036Q242.31177 337.31113 242.44432 338.3532Q242.59041 339.3875 242.26788 340.0789Q241.95891 340.76245 241.45824 341.0515Q240.47043 341.62183 239.14903 340.8331Q238.03174 340.17914 237.23486 338.79892ZM238.29298 338.3504Q239.1133 339.7712 239.98074 340.46118Q240.71594 341.04706 241.28427 340.71893Q241.5549 340.56268 241.71198 340.14725Q241.86903 339.7318 241.68195 339.064Q241.41199 338.0652 240.49011 336.46844Q239.81042 335.2912 239.11372 334.64697Q238.60188 334.1667 238.16356 334.09497Q237.86684 334.04977 237.56914 334.22165Q237.23085 334.41696 237.13991 334.88446Q237.01674 335.51486 237.40486 336.4996Q237.78517 337.47083 238.29298 338.3504ZM242.43102 335.79892Q241.75133 334.62167 241.61095 333.56604Q241.47058 332.51044 241.82378 331.7472Q242.09636 331.15683 242.5835 330.87558Q243.36833 330.42245 244.47307 330.86716Q245.82822 331.40182 246.8204 333.12036Q247.5079 334.31116 247.64046 335.35324Q247.78654 336.3875 247.46402 337.0789Q247.15504 337.76245 246.65437 338.0515Q245.66656 338.62183 244.34517 337.83313Q243.22789 337.17914 242.43102 335.79892ZM243.48912 335.3504Q244.30943 336.7712 245.17688 337.46118Q245.91208 338.0471 246.48041 337.71896Q246.75104 337.5627 246.90811 337.14725Q247.06519 336.7318 246.87808 336.06403Q246.60812 335.0652 245.68625 333.46844Q245.00656 332.2912 244.30988 331.64697Q243.79802 331.1667 243.3597 331.095Q243.06297 331.0498 242.76527 331.22168Q242.42699 331.417 242.33604 331.88446Q242.21288 332.5149 242.601 333.49963Q242.98131 334.47083 243.48912 335.3504ZM246.84111 329.49997L248.05028 327.71933L248.21266 327.62558L251.56422 333.43063Q251.90016 334.0125 252.0267 334.1379Q252.15895 334.24197 252.35468 334.23724Q252.5561 334.21115 253.024 333.95905L253.13338 334.1485L250.54883 335.6407L250.43945 335.45123Q250.91878 335.15646 251.01503 335.01068Q251.117 334.84354 251.10083 334.69052Q251.08464 334.53748 250.72527 333.915L248.58464 330.20734Q248.14714 329.4496 247.98935 329.27005Q247.85501 329.1311 247.71341 329.10458Q247.57182 329.0781 247.43651 329.15622Q247.24706 329.2656 247.01605 329.61548L246.84111 329.49997Z" fill-rule="nonzero"/><path fill="#000000" d="M126.30976 352.29892Q125.63007 351.12164 125.489716 350.06604Q125.34935 349.0104 125.70255 348.2472Q125.97513 347.6568 126.462265 347.37555Q127.2471 346.92242 128.35184 347.36713Q129.70699 347.90182 130.69917 349.62033Q131.38667 350.81113 131.51923 351.8532Q131.66531 352.88748 131.34279 353.5789Q131.03381 354.26245 130.53314 354.5515Q129.54533 355.12183 128.22394 354.3331Q127.106636 353.67914 126.30976 352.29892ZM127.36789 351.85037Q128.1882 353.2712 129.05565 353.96118Q129.79085 354.54706 130.35918 354.21893Q130.6298 354.06268 130.78688 353.64725Q130.94395 353.2318 130.75685 352.564Q130.4869 351.56516 129.56502 349.96844Q128.88533 348.79117 128.18864 348.14697Q127.67679 347.66666 127.23847 347.59497Q126.94174 347.54977 126.64405 347.72165Q126.305756 347.91696 126.21481 348.38446Q126.091644 349.01486 126.47977 349.9996Q126.86008 350.97083 127.36789 351.85037ZM133.8167 351.1763Q134.06026 351.03568 134.3242 351.11783Q134.58034 351.18646 134.71315 351.4165Q134.84596 351.64655 134.7716 351.924Q134.70299 352.18015 134.47295 352.31296Q134.2429 352.44577 133.97325 352.38495Q133.7093 352.3028 133.57649 352.07275Q133.43587 351.8292 133.5045 351.57306Q133.58665 351.3091 133.8167 351.1763ZM134.10399 347.79892Q133.4243 346.62164 133.28394 345.56604Q133.14357 344.5104 133.49678 343.7472Q133.76936 343.1568 134.2565 342.87555Q135.04134 342.42242 136.14607 342.86713Q137.50122 343.40182 138.49341 345.12033Q139.18091 346.31113 139.31346 347.3532Q139.45953 348.38748 139.13702 349.0789Q138.82803 349.76245 138.32736 350.0515Q137.33955 350.62183 136.01816 349.8331Q134.90086 349.17914 134.10399 347.79892ZM135.16211 347.35037Q135.98242 348.7712 136.84987 349.46118Q137.58507 350.04706 138.1534 349.71893Q138.42403 349.56268 138.5811 349.14725Q138.73817 348.7318 138.55109 348.064Q138.28113 347.06516 137.35925 345.46844Q136.67957 344.29117 135.98286 343.64697Q135.47102 343.16666 135.0327 343.09497Q134.73598 343.04977 134.43828 343.22165Q134.09999 343.41696 134.00903 343.88446Q133.88588 344.51486 134.27399 345.4996Q134.6543 346.47083 135.16211 347.35037ZM139.30014 344.79892Q138.62045 343.62164 138.48009 342.56604Q138.33972 341.5104 138.69293 340.7472Q138.96552 340.1568 139.45265 339.87555Q140.23749 339.42242 141.34222 339.86713Q142.69737 340.40182 143.68956 342.12033Q144.37706 343.31113 144.50961 344.3532Q144.65569 345.38748 144.33318 346.0789Q144.0242 346.76245 143.52353 347.0515Q142.5357 347.62183 141.21432 346.8331Q140.09702 346.17914 139.30014 344.79892ZM140.35826 344.35037Q141.17857 345.7712 142.04602 346.46118Q142.78122 347.04706 143.34955 346.71893Q143.6202 346.56268 143.77725 346.14725Q143.93433 345.7318 143.74724 345.064Q143.47728 344.06516 142.5554 342.46844Q141.87572 341.29117 141.17902 340.64697Q140.66718 340.16666 140.22885 340.09497Q139.93213 340.04977 139.63443 340.22165Q139.29614 340.41696 139.2052 340.88446Q139.08203 341.51486 139.47015 342.4996Q139.85045 343.47083 140.35826 344.35037ZM144.49629 341.79892Q143.8166 340.62164 143.67624 339.56604Q143.53587 338.5104 143.88908 337.7472Q144.16167 337.1568 144.6488 336.87555Q145.43364 336.42242 146.53838 336.86713Q147.89352 337.40182 148.88571 339.12033Q149.57321 340.31113 149.70576 341.3532Q149.85185 342.38748 149.52933 343.0789Q149.22035 343.76245 148.71968 344.0515Q147.73186 344.62183 146.41048 343.8331Q145.29317 343.17914 144.49629 341.79892ZM145.55441 341.35037Q146.37473 342.7712 147.24219 343.46118Q147.97737 344.04706 148.5457 343.71893Q148.81635 343.56268 148.9734 343.14725Q149.13048 342.7318 148.94339 342.064Q148.67343 341.06516 147.75156 339.46844Q147.07187 338.29117 146.37517 337.64697Q145.86333 337.16666 145.425 337.09497Q145.12828 337.04977 144.83058 337.22165Q144.4923 337.41696 144.40135 337.88446Q144.27818 338.51486 144.6663 339.4996Q145.0466 340.47083 145.55441 341.35037ZM148.90642 335.49994L150.11559 333.7193L150.27797 333.62555L153.62953 339.43063Q153.96547 340.01248 154.092 340.1379Q154.22424 340.24197 154.41997 340.2372Q154.62141 340.21112 155.08931 339.95905L155.19868 340.14847L152.61414 341.64066L152.50476 341.45123Q152.98409 341.15643 153.08034 341.01065Q153.18231 340.84354 153.16612 340.6905Q153.14995 340.53748 152.79057 339.915L150.64995 336.20734Q150.21245 335.44955 150.05466 335.27002Q149.92032 335.13107 149.77872 335.10458Q149.63712 335.07806 149.5018 335.1562Q149.31236 335.26556 149.08134 335.61545L148.90642 335.49994ZM160.46817 335.338L160.7602 336.93753L156.7007 339.28128L156.59132 339.09186Q157.43217 336.42328 157.56914 334.973Q157.69829 333.5092 157.2061 332.65668Q156.8311 332.00717 156.18297 331.82205Q155.54054 331.6156 154.97221 331.94373Q154.47154 332.2328 154.23747 332.76486Q154.0034 333.29694 154.14989 333.9882L153.96045 334.09756Q153.54889 333.0722 153.77403 332.27466Q154.0127 331.4693 154.79753 331.01617Q155.6365 330.5318 156.5038 330.75275Q157.37682 330.95236 157.79869 331.68307Q158.10338 332.21082 158.16449 332.87918Q158.25436 333.90982 157.94664 335.31433Q157.48508 337.42114 157.32439 337.8928L159.12408 336.85373Q159.67888 336.53342 159.87195 336.36783Q160.06502 336.20224 160.17062 335.97888Q160.28975 335.74774 160.27873 335.4474L160.46817 335.338ZM162.19629 326.92493L162.30386 328.01752L160.23352 329.21283L160.31822 330.3908Q161.77505 329.82034 163.02083 330.1656Q164.09584 330.46506 164.6349 331.39874Q164.9474 331.94 165.00433 332.53864Q165.05345 333.1237 164.90266 333.64377Q164.75188 334.16385 164.45529 334.58768Q164.0375 335.20776 163.41504 335.56714Q162.79259 335.9265 162.39124 335.8876Q161.9956 335.82733 161.84717 335.57025Q161.76904 335.43494 161.81479 335.26416Q161.86627 335.07208 162.04218 334.97052Q162.17749 334.8924 162.29565 334.8783Q162.42734 334.85638 162.75894 334.8995Q163.28627 334.93784 163.67868 334.71127Q164.27408 334.36752 164.46281 333.66318Q164.65154 332.9588 164.27654 332.3093Q163.91716 331.68683 163.19872 331.37994Q162.4938 331.06525 161.62608 331.18735Q160.93848 331.27762 159.96783 331.78387L159.73352 328.3468L162.19629 326.92493Z" fill-rule="nonzero"/><path fill="#000000" d="M43.963493 349.29892Q43.283806 348.12167 43.14344 347.06604Q43.00308 346.01044 43.35628 345.2472Q43.628857 344.6568 44.115997 344.37555Q44.900833 343.92242 46.00557 344.36716Q47.360718 344.90182 48.352905 346.62036Q49.040405 347.81113 49.17296 348.8532Q49.319042 349.88748 48.996525 350.5789Q48.687542 351.26245 48.18687 351.5515Q47.199062 352.12183 45.877666 351.3331Q44.76037 350.67914 43.963493 349.29892ZM45.021618 348.85037Q45.84193 350.2712 46.709377 350.96118Q47.444572 351.54706 48.0129 351.21893Q48.283535 351.06268 48.440605 350.64725Q48.59768 350.2318 48.410587 349.564Q48.140625 348.5652 47.21875 346.96844Q46.539062 345.79117 45.84237 345.14697Q45.33052 344.6667 44.8922 344.59497Q44.595474 344.54977 44.29778 344.72165Q43.959488 344.91696 43.86854 345.38446Q43.745377 346.01486 44.133495 346.9996Q44.513805 347.97083 45.021618 348.85037ZM51.470425 348.1763Q51.713993 348.03568 51.977936 348.11783Q52.234066 348.18646 52.36688 348.4165Q52.49969 348.64655 52.425343 348.924Q52.356712 349.18015 52.126675 349.31296Q51.896637 349.44577 51.626976 349.38495Q51.363033 349.3028 51.23022 349.07275Q51.089596 348.8292 51.158226 348.57306Q51.240387 348.3091 51.470425 348.1763ZM51.75772 344.79892Q51.078033 343.62167 50.93767 342.56604Q50.797306 341.51044 51.150513 340.7472Q51.42309 340.1568 51.91023 339.87555Q52.695065 339.42242 53.7998 339.86716Q55.15495 340.40182 56.147137 342.12036Q56.834637 343.31113 56.96719 344.3532Q57.113274 345.38748 56.790756 346.0789Q56.481773 346.76245 55.981102 347.0515Q54.993294 347.62183 53.671894 346.8331Q52.554596 346.17914 51.75772 344.79892ZM52.815845 344.35037Q53.636158 345.7712 54.50361 346.46118Q55.238804 347.04706 55.807133 346.71893Q56.077766 346.56268 56.23484 346.14725Q56.39191 345.7318 56.20482 345.064Q55.93486 344.06516 55.012985 342.46844Q54.333298 341.29117 53.6366 340.64697Q53.124752 340.1667 52.68643 340.09497Q52.389706 340.04977 52.09201 340.22165Q51.75372 340.41696 51.662773 340.88446Q51.539608 341.51486 51.927723 342.4996Q52.308033 343.47083 52.815845 344.35037ZM56.95388 341.79892Q56.274193 340.62167 56.133827 339.56604Q55.99346 338.51044 56.34667 337.7472Q56.619244 337.1568 57.10638 336.87555Q57.891216 336.42242 58.995956 336.86716Q60.351105 337.40182 61.343292 339.12036Q62.030792 340.31113 62.16334 341.3532Q62.309425 342.38748 61.98691 343.0789Q61.677925 343.76245 61.177254 344.0515Q60.189445 344.62183 58.86805 343.8331Q57.750755 343.17914 56.95388 341.79892ZM58.012 341.35037Q58.832314 342.7712 59.69976 343.46118Q60.43496 344.04706 61.00329 343.71893Q61.27392 343.56268 61.430992 343.14725Q61.588062 342.7318 61.400974 342.064Q61.131012 341.06516 60.209137 339.46844Q59.52945 338.29117 58.832752 337.64697Q58.320904 337.1667 57.882584 337.09497Q57.585857 337.04977 57.288162 337.22165Q56.94987 337.41696 56.858925 337.88446Q56.73576 338.51486 57.12388 339.4996Q57.50419 340.47083 58.012 341.35037ZM62.150032 338.79892Q61.470345 337.62167 61.32998 336.56604Q61.189613 335.51044 61.54282 334.7472Q61.815395 334.1568 62.302536 333.87555Q63.087368 333.42242 64.19211 333.86716Q65.54726 334.40182 66.539444 336.12036Q67.226944 337.31113 67.3595 338.3532Q67.50558 339.38748 67.18306 340.0789Q66.87408 340.76245 66.373405 341.0515Q65.3856 341.62183 64.0642 340.8331Q62.946907 340.17914 62.150032 338.79892ZM63.208153 338.35037Q64.028465 339.7712 64.89591 340.46118Q65.63111 341.04706 66.19944 340.71893Q66.47007 340.56268 66.627144 340.14725Q66.78422 339.7318 66.59712 339.064Q66.32716 338.06516 65.40529 336.46844Q64.7256 335.29117 64.02891 334.64697Q63.517056 334.1667 63.078735 334.09497Q62.782013 334.04977 62.484314 334.22165Q62.146023 334.41696 62.05508 334.88446Q61.93191 335.51486 62.320034 336.4996Q62.70034 337.47083 63.208153 338.35037ZM66.56014 332.49997L67.76932 330.7193L67.9317 330.62555L71.283264 336.43063Q71.6192 337.01248 71.745735 337.1379Q71.87798 337.24197 72.07371 337.2372Q72.27515 337.21112 72.743034 336.95905L72.85241 337.14847L70.26787 338.64066L70.15849 338.45123Q70.63782 338.15643 70.73407 338.01065Q70.836044 337.84354 70.81986 337.6905Q70.80367 337.53748 70.4443 336.915L68.30367 333.20734Q67.86617 332.44955 67.70839 332.27002Q67.57405 332.13107 67.43245 332.10458Q67.290855 332.0781 67.15554 332.15622Q66.966095 332.2656 66.735085 332.61545L66.56014 332.49997ZM74.65386 326.92493L74.761444 328.01752L72.6911 329.21283L72.77581 330.3908Q74.23263 329.82034 75.4784 330.1656Q76.55342 330.46506 77.09248 331.39874Q77.40498 331.94003 77.461914 332.53864Q77.51103 333.1237 77.360245 333.64377Q77.20945 334.16385 76.91288 334.58768Q76.49508 335.20776 75.87263 335.56714Q75.25017 335.9265 74.848816 335.8876Q74.453186 335.82736 74.30475 335.57025Q74.22662 335.43494 74.27238 335.2642Q74.323845 335.07208 74.499756 334.97052Q74.63507 334.8924 74.753235 334.8783Q74.884926 334.85638 75.21652 334.8995Q75.74385 334.93784 76.13627 334.71127Q76.73166 334.36752 76.92039 333.66318Q77.10912 332.95883 76.73412 332.3093Q76.37475 331.68683 75.656296 331.37994Q74.95138 331.06525 74.08367 331.18735Q73.396065 331.27762 72.42541 331.78387L72.1911 328.3468L74.65386 326.92493Z" fill-rule="nonzero"/><path fill="#757575" d="M32.753124 23.3L32.753124 23.675Q32.05 23.8 31.690624 24.1125Q31.175 24.596874 30.76875 25.58125L26.14375 36.846874L25.784374 36.846874L20.83125 25.440624Q20.440624 24.55 20.284374 24.3625Q20.05 24.065624 19.690624 23.89375Q19.33125 23.721874 18.721874 23.675L18.721874 23.3L24.14375 23.3L24.14375 23.675Q23.221874 23.753124 22.940624 23.9875Q22.675 24.20625 22.675 24.55Q22.675 25.05 23.128124 26.08125L26.4875 33.846874L29.6125 26.175Q30.08125 25.05 30.08125 24.6125Q30.08125 24.315624 29.784374 24.065624Q29.503124 23.8 28.83125 23.690624Q28.784374 23.690624 28.675 23.675L28.675 23.3L32.753124 23.3ZM33.675 30.971874Q33.675 32.971874 34.64375 34.096874Q35.628124 35.2375 36.940624 35.2375Q37.815624 35.2375 38.45625 34.753124Q39.1125 34.26875 39.565624 33.096874L39.8625 33.284374Q39.659374 34.628124 38.675 35.7375Q37.690624 36.83125 36.20625 36.83125Q34.58125 36.83125 33.440624 35.58125Q32.3 34.315624 32.3 32.190624Q32.3 29.89375 33.471874 28.6125Q34.64375 27.33125 36.425 27.33125Q37.925 27.33125 38.89375 28.33125Q39.8625 29.315624 39.8625 30.971874L33.675 30.971874ZM33.675 30.409374L37.815624 30.409374Q37.76875 29.55 37.6125 29.190624Q37.378124 28.64375 36.89375 28.33125Q36.409374 28.01875 35.878124 28.01875Q35.065624 28.01875 34.425 28.659374Q33.784374 29.284374 33.675 30.409374ZM44.253124 22.659374L44.253124 34.534374Q44.253124 35.3625 44.378124 35.64375Q44.503124 35.909374 44.753124 36.05Q45.003124 36.190624 45.690624 36.190624L45.690624 36.55L41.315624 36.55L41.315624 36.190624Q41.925 36.190624 42.14375 36.065624Q42.378124 35.940624 42.503124 35.659374Q42.628124 35.3625 42.628124 34.534374L42.628124 26.409374Q42.628124 24.89375 42.55 24.55Q42.4875 24.190624 42.33125 24.065624Q42.190624 23.940624 41.95625 23.940624Q41.70625 23.940624 41.315624 24.096874L41.14375 23.753124L43.815624 22.659374L44.253124 22.659374ZM51.55 27.346874Q53.58125 27.346874 54.815624 28.878124Q55.8625 30.20625 55.8625 31.909374Q55.8625 33.1125 55.284374 34.346874Q54.70625 35.565624 53.690624 36.20625Q52.690624 36.83125 51.440624 36.83125Q49.425 36.83125 48.2375 35.20625Q47.221874 33.846874 47.221874 32.159374Q47.221874 30.940624 47.83125 29.721874Q48.440624 28.503124 49.440624 27.925Q50.440624 27.346874 51.55 27.346874ZM51.253124 27.971874Q50.7375 27.971874 50.20625 28.284374Q49.690624 28.596874 49.3625 29.3625Q49.034374 30.128124 49.034374 31.346874Q49.034374 33.3 49.815624 34.721874Q50.596874 36.128124 51.8625 36.128124Q52.815624 36.128124 53.425 35.346874Q54.034374 34.565624 54.034374 32.659374Q54.034374 30.284374 53.01875 28.909374Q52.315624 27.971874 51.253124 27.971874ZM64.76875 33.14375Q64.40938 34.925 63.346874 35.878124Q62.3 36.83125 61.01875 36.83125Q59.503124 36.83125 58.3625 35.55Q57.2375 34.26875 57.2375 32.08125Q57.2375 29.971874 58.4875 28.659374Q59.7375 27.346874 61.503124 27.346874Q62.815624 27.346874 63.659374 28.05Q64.51875 28.7375 64.51875 29.4875Q64.51875 29.8625 64.26875 30.096874Q64.03438 30.315624 63.6125 30.315624Q63.034374 30.315624 62.7375 29.940624Q62.58125 29.7375 62.51875 29.175Q62.471874 28.596874 62.128124 28.284374Q61.784374 27.9875 61.175 27.9875Q60.20625 27.9875 59.6125 28.721874Q58.815624 29.675 58.815624 31.253124Q58.815624 32.846874 59.596874 34.08125Q60.39375 35.3 61.721874 35.3Q62.690624 35.3 63.440624 34.64375Q63.9875 34.190624 64.4875 33.01875L64.76875 33.14375ZM68.45625 22.659374Q68.8625 22.659374 69.14375 22.95625Q69.44063 23.2375 69.44063 23.64375Q69.44063 24.065624 69.14375 24.3625Q68.8625 24.64375 68.45625 24.64375Q68.03438 24.64375 67.7375 24.3625Q67.45625 24.065624 67.45625 23.64375Q67.45625 23.2375 67.7375 22.95625Q68.03438 22.659374 68.45625 22.659374ZM69.26875 27.346874L69.26875 34.534374Q69.26875 35.3625 69.37813 35.64375Q69.50313 35.925 69.7375 36.065624Q69.9875 36.190624 70.6125 36.190624L70.6125 36.55L66.26875 36.55L66.26875 36.190624Q66.925 36.190624 67.14375 36.065624Q67.37813 35.940624 67.50313 35.659374Q67.64375 35.3625 67.64375 34.534374L67.64375 31.08125Q67.64375 29.628124 67.55 29.190624Q67.4875 28.878124 67.33125 28.76875Q67.19063 28.64375 66.94063 28.64375Q66.65938 28.64375 66.26875 28.784374L66.14375 28.440624L68.83125 27.346874L69.26875 27.346874ZM74.76875 24.659374L74.76875 27.596874L76.8625 27.596874L76.8625 28.284374L74.76875 28.284374L74.76875 34.08125Q74.76875 34.95625 75.01875 35.26875Q75.26875 35.565624 75.65938 35.565624Q75.9875 35.565624 76.28438 35.3625Q76.59688 35.159374 76.75313 34.76875L77.14375 34.76875Q76.8 35.721874 76.175 36.20625Q75.55 36.690624 74.87813 36.690624Q74.425 36.690624 73.9875 36.440624Q73.56563 36.190624 73.3625 35.7375Q73.15938 35.26875 73.15938 34.3L73.15938 28.284374L71.75313 28.284374L71.75313 27.971874Q72.28438 27.753124 72.84688 27.2375Q73.40938 26.721874 73.84688 26.01875Q74.06563 25.64375 74.47188 24.659374L74.76875 24.659374ZM76.675 27.596874L80.83125 27.596874L80.83125 27.971874L80.62813 27.971874Q80.19063 27.971874 79.97188 28.159374Q79.75313 28.346874 79.75313 28.628124Q79.75313 29.003124 80.08125 29.690624L82.25313 34.190624L84.25313 29.253124Q84.425 28.846874 84.425 28.45625Q84.425 28.284374 84.34688 28.20625Q84.26875 28.096874 84.09688 28.034374Q83.94063 27.971874 83.51875 27.971874L83.51875 27.596874L86.44063 27.596874L86.44063 27.971874Q86.06563 28.003124 85.8625 28.128124Q85.675 28.2375 85.44063 28.565624Q85.3625 28.690624 85.1125 29.315624L81.47188 38.2375Q80.94063 39.534374 80.08125 40.190624Q79.2375 40.8625 78.44063 40.8625Q77.8625 40.8625 77.4875 40.534374Q77.12813 40.20625 77.12813 39.76875Q77.12813 39.3625 77.39375 39.1125Q77.65938 38.8625 78.12813 38.8625Q78.45625 38.8625 79.01875 39.08125Q79.40938 39.221874 79.50313 39.221874Q79.8 39.221874 80.14375 38.925Q80.4875 38.628124 80.83125 37.753124L81.47188 36.190624L78.25313 29.45625Q78.1125 29.14375 77.78438 28.690624Q77.55 28.3625 77.39375 28.2375Q77.15938 28.08125 76.675 27.971874L76.675 27.596874ZM91.76875 40.471874L91.76875 40.83125Q90.28438 40.08125 89.3 39.096874Q87.89375 37.675 87.12813 35.753124Q86.37813 33.83125 86.37813 31.753124Q86.37813 28.721874 87.8625 26.2375Q89.3625 23.7375 91.76875 22.659374L91.76875 23.065624Q90.56563 23.7375 89.78438 24.89375Q89.01875 26.034374 88.62813 27.815624Q88.25313 29.58125 88.25313 31.503124Q88.25313 33.596874 88.58125 35.3Q88.83125 36.64375 89.19063 37.45625Q89.55 38.284374 90.15938 39.034374Q90.76875 39.784374 91.76875 40.471874ZM92.675 27.596874L96.83125 27.596874L96.83125 27.971874L96.62813 27.971874Q96.19063 27.971874 95.97188 28.159374Q95.75313 28.346874 95.75313 28.628124Q95.75313 29.003124 96.08125 29.690624L98.25313 34.190624L100.25313 29.253124Q100.425 28.846874 100.425 28.45625Q100.425 28.284374 100.34688 28.20625Q100.26875 28.096874 100.09688 28.034374Q99.94063 27.971874 99.51875 27.971874L99.51875 27.596874L102.44063 27.596874L102.44063 27.971874Q102.06563 28.003124 101.8625 28.128124Q101.675 28.2375 101.44063 28.565624Q101.3625 28.690624 101.1125 29.315624L97.47188 38.2375Q96.94063 39.534374 96.08125 40.190624Q95.2375 40.8625 94.44063 40.8625Q93.8625 40.8625 93.4875 40.534374Q93.12813 40.20625 93.12813 39.76875Q93.12813 39.3625 93.39375 39.1125Q93.65938 38.8625 94.12813 38.8625Q94.45625 38.8625 95.01875 39.08125Q95.40938 39.221874 95.50313 39.221874Q95.8 39.221874 96.14375 38.925Q96.4875 38.628124 96.83125 37.753124L97.47188 36.190624L94.25313 29.45625Q94.1125 29.14375 93.78438 28.690624Q93.55 28.3625 93.39375 28.2375Q93.15938 28.08125 92.675 27.971874L92.675 27.596874ZM102.00313 23.065624L102.00313 22.659374Q103.4875 23.39375 104.47188 24.39375Q105.8625 25.815624 106.62813 27.7375Q107.39375 29.659374 107.39375 31.7375Q107.39375 34.76875 105.89375 37.253124Q104.40938 39.753124 102.00313 40.83125L102.00313 40.471874Q103.20625 39.8 103.97188 38.64375Q104.75313 37.503124 105.12813 35.7375Q105.50313 33.95625 105.50313 32.034374Q105.50313 29.940624 105.19063 28.221874Q104.94063 26.878124 104.56563 26.065624Q104.20625 25.253124 103.59688 24.503124Q103.00313 23.753124 102.00313 23.065624ZM119.2375 35.253124Q117.8625 36.33125 117.51875 36.4875Q116.9875 36.7375 116.39375 36.7375Q115.47188 36.7375 114.8625 36.1125Q114.26875 35.471874 114.26875 34.425Q114.26875 33.76875 114.55 33.3Q114.95625 32.628124 115.94063 32.05Q116.94063 31.45625 119.2375 30.628124L119.2375 30.26875Q119.2375 28.925 118.81563 28.440624Q118.39375 27.940624 117.58125 27.940624Q116.97188 27.940624 116.6125 28.26875Q116.2375 28.596874 116.2375 29.034374L116.25313 29.596874Q116.25313 30.05 116.01875 30.3Q115.8 30.534374 115.425 30.534374Q115.06563 30.534374 114.83125 30.284374Q114.6125 30.01875 114.6125 29.58125Q114.6125 28.753124 115.47188 28.05Q116.33125 27.346874 117.87813 27.346874Q119.06563 27.346874 119.83125 27.7375Q120.40938 28.05 120.675 28.690624Q120.8625 29.1125 120.8625 30.409374L120.8625 33.440624Q120.8625 34.721874 120.90938 35.01875Q120.95625 35.3 121.06563 35.39375Q121.175 35.4875 121.33125 35.4875Q121.4875 35.4875 121.59688 35.425Q121.8 35.3 122.39375 34.70625L122.39375 35.253124Q121.3 36.721874 120.3 36.721874Q119.81563 36.721874 119.53438 36.39375Q119.25313 36.065624 119.2375 35.253124ZM119.2375 34.628124L119.2375 31.221874Q117.76875 31.8 117.34688 32.05Q116.56563 32.471874 116.2375 32.940624Q115.90938 33.409374 115.90938 33.971874Q115.90938 34.675 116.31563 35.14375Q116.7375 35.596874 117.28438 35.596874Q118.03438 35.596874 119.2375 34.628124ZM125.78438 29.2375Q127.3625 27.346874 128.78438 27.346874Q129.51875 27.346874 130.03438 27.70625Q130.56563 28.065624 130.87813 28.909374Q131.09688 29.503124 131.09688 30.70625L131.09688 34.534374Q131.09688 35.378124 131.2375 35.675Q131.34688 35.925 131.58125 36.065624Q131.81563 36.190624 132.45625 36.190624L132.45625 36.55L128.03438 36.55L128.03438 36.190624L128.22188 36.190624Q128.84688 36.190624 129.09688 36.003124Q129.34688 35.815624 129.44063 35.440624Q129.4875 35.3 129.4875 34.534374L129.4875 30.8625Q129.4875 29.64375 129.15938 29.096874Q128.84688 28.534374 128.09688 28.534374Q126.94063 28.534374 125.78438 29.815624L125.78438 34.534374Q125.78438 35.440624 125.89375 35.64375Q126.03438 35.940624 126.26875 36.065624Q126.50313 36.190624 127.2375 36.190624L127.2375 36.55L122.81563 36.55L122.81563 36.190624L123.00313 36.190624Q123.69063 36.190624 123.925 35.846874Q124.175 35.503124 124.175 34.534374L124.175 31.20625Q124.175 29.596874 124.09688 29.253124Q124.01875 28.89375 123.8625 28.76875Q123.72188 28.64375 123.47188 28.64375Q123.19063 28.64375 122.81563 28.784374L122.675 28.440624L125.3625 27.346874L125.78438 27.346874L125.78438 29.2375ZM138.4875 35.55Q137.84688 36.221874 137.22188 36.534374Q136.59688 36.83125 135.8625 36.83125Q134.40938 36.83125 133.31563 35.6125Q132.22188 34.378124 132.22188 32.440624Q132.22188 30.51875 133.425 28.925Q134.64375 27.33125 136.53438 27.33125Q137.72188 27.33125 138.4875 28.08125L138.4875 26.425Q138.4875 24.89375 138.40938 24.55Q138.34688 24.190624 138.19063 24.065624Q138.03438 23.940624 137.8 23.940624Q137.55 23.940624 137.12813 24.096874L137.00313 23.753124L139.65938 22.659374L140.1125 22.659374L140.1125 33.003124Q140.1125 34.58125 140.175 34.925Q140.25313 35.26875 140.40938 35.409374Q140.58125 35.55 140.78438 35.55Q141.05 35.55 141.4875 35.378124L141.59688 35.721874L138.94063 36.83125L138.4875 36.83125L138.4875 35.55ZM138.4875 34.8625L138.4875 30.253124Q138.44063 29.58125 138.14375 29.034374Q137.84688 28.4875 137.3625 28.221874Q136.87813 27.940624 136.425 27.940624Q135.56563 27.940624 134.89375 28.70625Q134.00313 29.721874 134.00313 31.675Q134.00313 33.64375 134.8625 34.70625Q135.72188 35.753124 136.76875 35.753124Q137.65938 35.753124 138.4875 34.8625ZM160.06563 36.55L156.53438 36.55L152.05 30.3625Q151.55 30.378124 151.2375 30.378124Q151.1125 30.378124 150.95625 30.378124Q150.81563 30.3625 150.65938 30.3625L150.65938 34.20625Q150.65938 35.45625 150.94063 35.753124Q151.3 36.190624 152.05 36.190624L152.56563 36.190624L152.56563 36.55L146.89375 36.55L146.89375 36.190624L147.39375 36.190624Q148.2375 36.190624 148.59688 35.64375Q148.8 35.33125 148.8 34.20625L148.8 25.64375Q148.8 24.39375 148.51875 24.096874Q148.14375 23.675 147.39375 23.675L146.89375 23.675L146.89375 23.3L151.72188 23.3Q153.83125 23.3 154.83125 23.6125Q155.83125 23.925 156.51875 24.753124Q157.22188 25.565624 157.22188 26.721874Q157.22188 27.940624 156.425 28.846874Q155.62813 29.7375 153.95625 30.096874L156.69063 33.909374Q157.62813 35.20625 158.3 35.64375Q158.9875 36.065624 160.06563 36.190624L160.06563 36.55ZM150.65938 29.7375Q150.84688 29.7375 150.9875 29.753124Q151.12813 29.753124 151.20625 29.753124Q153.09688 29.753124 154.06563 28.940624Q155.03438 28.1125 155.03438 26.846874Q155.03438 25.596874 154.25313 24.83125Q153.47188 24.05 152.19063 24.05Q151.62813 24.05 150.65938 24.2375L150.65938 29.7375ZM161.675 30.971874Q161.675 32.971874 162.64375 34.096874Q163.62813 35.2375 164.94063 35.2375Q165.81563 35.2375 166.45625 34.753124Q167.1125 34.26875 167.56563 33.096874L167.8625 33.284374Q167.65938 34.628124 166.675 35.7375Q165.69063 36.83125 164.20625 36.83125Q162.58125 36.83125 161.44063 35.58125Q160.3 34.315624 160.3 32.190624Q160.3 29.89375 161.47188 28.6125Q162.64375 27.33125 164.425 27.33125Q165.925 27.33125 166.89375 28.33125Q167.8625 29.315624 167.8625 30.971874L161.675 30.971874ZM161.675 30.409374L165.81563 30.409374Q165.76875 29.55 165.6125 29.190624Q165.37813 28.64375 164.89375 28.33125Q164.40938 28.01875 163.87813 28.01875Q163.06563 28.01875 162.425 28.659374Q161.78438 29.284374 161.675 30.409374ZM174.95625 27.346874L174.95625 30.39375L174.62813 30.39375Q174.26875 28.95625 173.675 28.440624Q173.09688 27.909374 172.20625 27.909374Q171.51875 27.909374 171.09688 28.284374Q170.675 28.64375 170.675 29.08125Q170.675 29.628124 170.9875 30.01875Q171.3 30.409374 172.22188 30.8625L173.64375 31.565624Q175.62813 32.51875 175.62813 34.1125Q175.62813 35.33125 174.70625 36.08125Q173.78438 36.83125 172.64375 36.83125Q171.81563 36.83125 170.76875 36.534374Q170.44063 36.425 170.2375 36.425Q170.01875 36.425 169.89375 36.690624L169.56563 36.690624L169.56563 33.4875L169.89375 33.4875Q170.15938 34.8625 170.925 35.565624Q171.70625 36.253124 172.65938 36.253124Q173.33125 36.253124 173.75313 35.8625Q174.19063 35.45625 174.19063 34.89375Q174.19063 34.221874 173.70625 33.76875Q173.2375 33.3 171.81563 32.596874Q170.40938 31.89375 169.97188 31.33125Q169.53438 30.784374 169.53438 29.925Q169.53438 28.83125 170.28438 28.096874Q171.03438 27.346874 172.2375 27.346874Q172.76875 27.346874 173.51875 27.565624Q174.01875 27.70625 174.19063 27.70625Q174.34688 27.70625 174.425 27.64375Q174.51875 27.58125 174.62813 27.346874L174.95625 27.346874ZM179.45625 22.659374Q179.8625 22.659374 180.14375 22.95625Q180.44063 23.2375 180.44063 23.64375Q180.44063 24.065624 180.14375 24.3625Q179.8625 24.64375 179.45625 24.64375Q179.03438 24.64375 178.7375 24.3625Q178.45625 24.065624 178.45625 23.64375Q178.45625 23.2375 178.7375 22.95625Q179.03438 22.659374 179.45625 22.659374ZM180.26875 27.346874L180.26875 34.534374Q180.26875 35.3625 180.37813 35.64375Q180.50313 35.925 180.7375 36.065624Q180.9875 36.190624 181.6125 36.190624L181.6125 36.55L177.26875 36.55L177.26875 36.190624Q177.925 36.190624 178.14375 36.065624Q178.37813 35.940624 178.50313 35.659374Q178.64375 35.3625 178.64375 34.534374L178.64375 31.08125Q178.64375 29.628124 178.55 29.190624Q178.4875 28.878124 178.33125 28.76875Q178.19063 28.64375 177.94063 28.64375Q177.65938 28.64375 177.26875 28.784374L177.14375 28.440624L179.83125 27.346874L180.26875 27.346874ZM188.95625 27.346874L188.95625 30.39375L188.62813 30.39375Q188.26875 28.95625 187.675 28.440624Q187.09688 27.909374 186.20625 27.909374Q185.51875 27.909374 185.09688 28.284374Q184.675 28.64375 184.675 29.08125Q184.675 29.628124 184.9875 30.01875Q185.3 30.409374 186.22188 30.8625L187.64375 31.565624Q189.62813 32.51875 189.62813 34.1125Q189.62813 35.33125 188.70625 36.08125Q187.78438 36.83125 186.64375 36.83125Q185.81563 36.83125 184.76875 36.534374Q184.44063 36.425 184.2375 36.425Q184.01875 36.425 183.89375 36.690624L183.56563 36.690624L183.56563 33.4875L183.89375 33.4875Q184.15938 34.8625 184.925 35.565624Q185.70625 36.253124 186.65938 36.253124Q187.33125 36.253124 187.75313 35.8625Q188.19063 35.45625 188.19063 34.89375Q188.19063 34.221874 187.70625 33.76875Q187.2375 33.3 185.81563 32.596874Q184.40938 31.89375 183.97188 31.33125Q183.53438 30.784374 183.53438 29.925Q183.53438 28.83125 184.28438 28.096874Q185.03438 27.346874 186.2375 27.346874Q186.76875 27.346874 187.51875 27.565624Q188.01875 27.70625 188.19063 27.70625Q188.34688 27.70625 188.425 27.64375Q188.51875 27.58125 188.62813 27.346874L188.95625 27.346874ZM193.76875 24.659374L193.76875 27.596874L195.8625 27.596874L195.8625 28.284374L193.76875 28.284374L193.76875 34.08125Q193.76875 34.95625 194.01875 35.26875Q194.26875 35.565624 194.65938 35.565624Q194.9875 35.565624 195.28438 35.3625Q195.59688 35.159374 195.75313 34.76875L196.14375 34.76875Q195.8 35.721874 195.175 36.20625Q194.55 36.690624 193.87813 36.690624Q193.425 36.690624 192.9875 36.440624Q192.56563 36.190624 192.3625 35.7375Q192.15938 35.26875 192.15938 34.3L192.15938 28.284374L190.75313 28.284374L190.75313 27.971874Q191.28438 27.753124 191.84688 27.2375Q192.40938 26.721874 192.84688 26.01875Q193.06563 25.64375 193.47188 24.659374L193.76875 24.659374ZM201.2375 35.253124Q199.8625 36.33125 199.51875 36.4875Q198.9875 36.7375 198.39375 36.7375Q197.47188 36.7375 196.8625 36.1125Q196.26875 35.471874 196.26875 34.425Q196.26875 33.76875 196.55 33.3Q196.95625 32.628124 197.94063 32.05Q198.94063 31.45625 201.2375 30.628124L201.2375 30.26875Q201.2375 28.925 200.81563 28.440624Q200.39375 27.940624 199.58125 27.940624Q198.97188 27.940624 198.6125 28.26875Q198.2375 28.596874 198.2375 29.034374L198.25313 29.596874Q198.25313 30.05 198.01875 30.3Q197.8 30.534374 197.425 30.534374Q197.06563 30.534374 196.83125 30.284374Q196.6125 30.01875 196.6125 29.58125Q196.6125 28.753124 197.47188 28.05Q198.33125 27.346874 199.87813 27.346874Q201.06563 27.346874 201.83125 27.7375Q202.40938 28.05 202.675 28.690624Q202.8625 29.1125 202.8625 30.409374L202.8625 33.440624Q202.8625 34.721874 202.90938 35.01875Q202.95625 35.3 203.06563 35.39375Q203.175 35.4875 203.33125 35.4875Q203.4875 35.4875 203.59688 35.425Q203.8 35.3 204.39375 34.70625L204.39375 35.253124Q203.3 36.721874 202.3 36.721874Q201.81563 36.721874 201.53438 36.39375Q201.25313 36.065624 201.2375 35.253124ZM201.2375 34.628124L201.2375 31.221874Q199.76875 31.8 199.34688 32.05Q198.56563 32.471874 198.2375 32.940624Q197.90938 33.409374 197.90938 33.971874Q197.90938 34.675 198.31563 35.14375Q198.7375 35.596874 199.28438 35.596874Q200.03438 35.596874 201.2375 34.628124ZM207.78438 29.2375Q209.3625 27.346874 210.78438 27.346874Q211.51875 27.346874 212.03438 27.70625Q212.56563 28.065624 212.87813 28.909374Q213.09688 29.503124 213.09688 30.70625L213.09688 34.534374Q213.09688 35.378124 213.2375 35.675Q213.34688 35.925 213.58125 36.065624Q213.81563 36.190624 214.45625 36.190624L214.45625 36.55L210.03438 36.55L210.03438 36.190624L210.22188 36.190624Q210.84688 36.190624 211.09688 36.003124Q211.34688 35.815624 211.44063 35.440624Q211.4875 35.3 211.4875 34.534374L211.4875 30.8625Q211.4875 29.64375 211.15938 29.096874Q210.84688 28.534374 210.09688 28.534374Q208.94063 28.534374 207.78438 29.815624L207.78438 34.534374Q207.78438 35.440624 207.89375 35.64375Q208.03438 35.940624 208.26875 36.065624Q208.50313 36.190624 209.2375 36.190624L209.2375 36.55L204.81563 36.55L204.81563 36.190624L205.00313 36.190624Q205.69063 36.190624 205.925 35.846874Q206.175 35.503124 206.175 34.534374L206.175 31.20625Q206.175 29.596874 206.09688 29.253124Q206.01875 28.89375 205.8625 28.76875Q205.72188 28.64375 205.47188 28.64375Q205.19063 28.64375 204.81563 28.784374L204.675 28.440624L207.3625 27.346874L207.78438 27.346874L207.78438 29.2375ZM221.76875 33.14375Q221.40938 34.925 220.34688 35.878124Q219.3 36.83125 218.01875 36.83125Q216.50313 36.83125 215.3625 35.55Q214.2375 34.26875 214.2375 32.08125Q214.2375 29.971874 215.4875 28.659374Q216.7375 27.346874 218.50313 27.346874Q219.81563 27.346874 220.65938 28.05Q221.51875 28.7375 221.51875 29.4875Q221.51875 29.8625 221.26875 30.096874Q221.03438 30.315624 220.6125 30.315624Q220.03438 30.315624 219.7375 29.940624Q219.58125 29.7375 219.51875 29.175Q219.47188 28.596874 219.12813 28.284374Q218.78438 27.9875 218.175 27.9875Q217.20625 27.9875 216.6125 28.721874Q215.81563 29.675 215.81563 31.253124Q215.81563 32.846874 216.59688 34.08125Q217.39375 35.3 218.72188 35.3Q219.69063 35.3 220.44063 34.64375Q220.9875 34.190624 221.4875 33.01875L221.76875 33.14375ZM224.675 30.971874Q224.675 32.971874 225.64375 34.096874Q226.62813 35.2375 227.94063 35.2375Q228.81563 35.2375 229.45625 34.753124Q230.1125 34.26875 230.56563 33.096874L230.8625 33.284374Q230.65938 34.628124 229.675 35.7375Q228.69063 36.83125 227.20625 36.83125Q225.58125 36.83125 224.44063 35.58125Q223.3 34.315624 223.3 32.190624Q223.3 29.89375 224.47188 28.6125Q225.64375 27.33125 227.425 27.33125Q228.925 27.33125 229.89375 28.33125Q230.8625 29.315624 230.8625 30.971874L224.675 30.971874ZM224.675 30.409374L228.81563 30.409374Q228.76875 29.55 228.6125 29.190624Q228.37813 28.64375 227.89375 28.33125Q227.40938 28.01875 226.87813 28.01875Q226.06563 28.01875 225.425 28.659374Q224.78438 29.284374 224.675 30.409374ZM237.76875 40.471874L237.76875 40.83125Q236.28438 40.08125 235.3 39.096874Q233.89375 37.675 233.12813 35.753124Q232.37813 33.83125 232.37813 31.753124Q232.37813 28.721874 233.8625 26.2375Q235.3625 23.7375 237.76875 22.659374L237.76875 23.065624Q236.56563 23.7375 235.78438 24.89375Q235.01875 26.034374 234.62813 27.815624Q234.25313 29.58125 234.25313 31.503124Q234.25313 33.596874 234.58125 35.3Q234.83125 36.64375 235.19063 37.45625Q235.55 38.284374 236.15938 39.034374Q236.76875 39.784374 237.76875 40.471874ZM238.81563 27.596874L243.01875 27.596874L243.01875 27.971874Q242.62813 27.971874 242.45625 28.1125Q242.3 28.2375 242.3 28.45625Q242.3 28.690624 242.64375 29.190624Q242.75313 29.346874 242.97188 29.675L243.59688 30.690624L244.33125 29.675Q245.03438 28.70625 245.03438 28.45625Q245.03438 28.253124 244.8625 28.1125Q244.70625 27.971874 244.33125 27.971874L244.33125 27.596874L247.3625 27.596874L247.3625 27.971874Q246.87813 27.9875 246.53438 28.221874Q246.05 28.565624 245.22188 29.675L244.00313 31.3L246.22188 34.503124Q247.05 35.690624 247.39375 35.940624Q247.75313 36.175 248.3 36.190624L248.3 36.55L244.08125 36.55L244.08125 36.190624Q244.53438 36.190624 244.76875 36.003124Q244.95625 35.8625 244.95625 35.64375Q244.95625 35.409374 244.33125 34.503124L243.01875 32.596874L241.58125 34.503124Q240.925 35.39375 240.925 35.565624Q240.925 35.8 241.14375 35.9875Q241.3625 36.175 241.8 36.190624L241.8 36.55L238.87813 36.55L238.87813 36.190624Q239.2375 36.14375 239.50313 35.95625Q239.8625 35.675 240.75313 34.503124L242.62813 32.01875L240.925 29.55Q240.20625 28.503124 239.8 28.2375Q239.40938 27.971874 238.81563 27.971874L238.81563 27.596874ZM248.00313 23.065624L248.00313 22.659374Q249.4875 23.39375 250.47188 24.39375Q251.8625 25.815624 252.62813 27.7375Q253.39375 29.659374 253.39375 31.7375Q253.39375 34.76875 251.89375 37.253124Q250.40938 39.753124 248.00313 40.83125L248.00313 40.471874Q249.20625 39.8 249.97188 38.64375Q250.75313 37.503124 251.12813 35.7375Q251.50313 33.95625 251.50313 32.034374Q251.50313 29.940624 251.19063 28.221874Q250.94063 26.878124 250.56563 26.065624Q250.20625 25.253124 249.59688 24.503124Q249.00313 23.753124 248.00313 23.065624Z" fill-rule="nonzero"/></svg>