<svg xmlns="http://www.w3.org/2000/svg" viewBox="0 0 200 210">
  <!-- Original animation elements (unchanged) -->
  <g fill="#3498db">
    <rect x="95" y="55" width="10" height="5"/>
    <rect x="90" y="60" width="20" height="5"/>
    <rect x="85" y="65" width="30" height="5"/>
    <rect x="80" y="70" width="40" height="5"/>
    <rect x="75" y="75" width="50" height="5"/>
    <rect x="70" y="80" width="60" height="5"/>
    <rect x="65" y="85" width="70" height="30"/>
    <rect x="70" y="115" width="60" height="5"/>
    <rect x="75" y="120" width="50" height="5"/>
    <rect x="80" y="125" width="40" height="5"/>
    <rect x="85" y="130" width="30" height="5"/>
    <rect x="90" y="135" width="20" height="5"/>
    <rect x="95" y="140" width="10" height="5"/>
    <animate attributeName="opacity" from="1" to="0" dur="1s" begin="0s" fill="freeze"/>
  </g>
  
  <circle cx="100" cy="100" r="80" fill="none" stroke="#bdc3c7" stroke-width="1" stroke-dasharray="5,5">
    <animate attributeName="opacity" from="1" to="0" dur="1s" begin="0s" fill="freeze"/>
  </circle>
  
  <g transform="translate(180 100)">
    <g fill="#e74c3c">
      <rect x="-3" y="-3" width="6" height="2"/>
      <rect x="-5" y="-1" width="10" height="2"/>
      <rect x="-7" y="1" width="14" height="2"/>
      <rect x="-5" y="3" width="10" height="2"/>
      <rect x="-3" y="5" width="6" height="2"/>
    </g>
    <animateTransform attributeName="transform" type="scale" from="1 1" to="20 20" begin="1s" dur="3s" fill="freeze" additive="sum"/>
    <animate attributeName="opacity" from="1" to="0" dur="0.5s" begin="4s" fill="freeze"/>
  </g>
  
  <g>
    <text x="100" y="40" text-anchor="middle" font-size="8" fill="black">
      the average proton or neutron
      <tspan x="100" dy="10">contains 22,000 bodies (particles)</tspan>
    </text>
    <text x="10" y="190" font-size="8" fill="black">
      average electron consists of
      <tspan x="10" dy="10">81 bodies (particles)</tspan>
    </text>
    <animate attributeName="opacity" from="1" to="0" dur="1s" begin="0s" fill="freeze"/>
  </g>
  
  <rect x="10" y="200" width="180" height="5" fill="#e0e0e0" rx="2.5" ry="2.5"/>
  <rect x="10" y="200" width="0" height="5" fill="#2ecc71" rx="2.5" ry="2.5">
    <animate attributeName="width" from="0" to="180" dur="8s" fill="freeze"/>
  </rect>
  
  <!-- 21 particle systems spread across the quadrant -->
  <g opacity="0">
    <animate attributeName="opacity" from="0" to="1" dur="0.5s" begin="4s" fill="freeze"/>
    
    <!-- Original 14 sets, moved up and left -->
    <g transform="translate(75, 70) scale(0.4)">
      <rect x="94" y="94" width="12" height="12" fill="#3498db"/>
      <g>
        <rect x="98" y="76" width="4" height="4" fill="#e74c3c"/>
        <animateTransform attributeName="transform" type="rotate" from="0 100 100" to="360 100 100" dur="4s" repeatCount="indefinite"/>
      </g>
    </g>
    
    <g transform="translate(115, 70) scale(0.4)">
      <rect x="94" y="94" width="12" height="12" fill="#3498db"/>
      <g>
        <rect x="98" y="76" width="4" height="4" fill="#e74c3c"/>
        <animateTransform attributeName="transform" type="rotate" from="0 100 100" to="360 100 100" dur="4s" repeatCount="indefinite"/>
      </g>
    </g>
    
    <g transform="translate(155, 70) scale(0.4)">
      <rect x="94" y="94" width="12" height="12" fill="#3498db"/>
      <g>
        <rect x="98" y="76" width="4" height="4" fill="#e74c3c"/>
        <animateTransform attributeName="transform" type="rotate" from="0 100 100" to="360 100 100" dur="4s" repeatCount="indefinite"/>
      </g>
    </g>
    
    <g transform="translate(95, 100) scale(0.4)">
      <rect x="94" y="94" width="12" height="12" fill="#3498db"/>
      <g>
        <rect x="98" y="76" width="4" height="4" fill="#e74c3c"/>
        <animateTransform attributeName="transform" type="rotate" from="0 100 100" to="360 100 100" dur="4s" repeatCount="indefinite"/>
      </g>
    </g>
    
    <g transform="translate(135, 100) scale(0.4)">
      <rect x="94" y="94" width="12" height="12" fill="#3498db"/>
      <g>
        <rect x="98" y="76" width="4" height="4" fill="#e74c3c"/>
        <animateTransform attributeName="transform" type="rotate" from="0 100 100" to="360 100 100" dur="4s" repeatCount="indefinite"/>
      </g>
    </g>
    
    <g transform="translate(75, 130) scale(0.4)">
      <rect x="94" y="94" width="12" height="12" fill="#3498db"/>
      <g>
        <rect x="98" y="76" width="4" height="4" fill="#e74c3c"/>
        <animateTransform attributeName="transform" type="rotate" from="0 100 100" to="360 100 100" dur="4s" repeatCount="indefinite"/>
      </g>
    </g>
    
    <g transform="translate(115, 130) scale(0.4)">
      <rect x="94" y="94" width="12" height="12" fill="#3498db"/>
      <g>
        <rect x="98" y="76" width="4" height="4" fill="#e74c3c"/>
        <animateTransform attributeName="transform" type="rotate" from="0 100 100" to="360 100 100" dur="4s" repeatCount="indefinite"/>
      </g>
    </g>
    
    <g transform="translate(155, 130) scale(0.4)">
      <rect x="94" y="94" width="12" height="12" fill="#3498db"/>
      <g>
        <rect x="98" y="76" width="4" height="4" fill="#e74c3c"/>
        <animateTransform attributeName="transform" type="rotate" from="0 100 100" to="360 100 100" dur="4s" repeatCount="indefinite"/>
      </g>
    </g>
    
    <g transform="translate(95, 160) scale(0.4)">
      <rect x="94" y="94" width="12" height="12" fill="#3498db"/>
      <g>
        <rect x="98" y="76" width="4" height="4" fill="#e74c3c"/>
        <animateTransform attributeName="transform" type="rotate" from="0 100 100" to="360 100 100" dur="4s" repeatCount="indefinite"/>
      </g>
    </g>
    
    <g transform="translate(135, 160) scale(0.4)">
      <rect x="94" y="94" width="12" height="12" fill="#3498db"/>
      <g>
        <rect x="98" y="76" width="4" height="4" fill="#e74c3c"/>
        <animateTransform attributeName="transform" type="rotate" from="0 100 100" to="360 100 100" dur="4s" repeatCount="indefinite"/>
      </g>
    </g>
    
    <g transform="translate(85, 85) scale(0.4)">
      <rect x="94" y="94" width="12" height="12" fill="#3498db"/>
      <g>
        <rect x="98" y="76" width="4" height="4" fill="#e74c3c"/>
        <animateTransform attributeName="transform" type="rotate" from="0 100 100" to="360 100 100" dur="4s" repeatCount="indefinite"/>
      </g>
    </g>
    
    <g transform="translate(125, 85) scale(0.4)">
      <rect x="94" y="94" width="12" height="12" fill="#3498db"/>
      <g>
        <rect x="98" y="76" width="4" height="4" fill="#e74c3c"/>
        <animateTransform attributeName="transform" type="rotate" from="0 100 100" to="360 100 100" dur="4s" repeatCount="indefinite"/>
      </g>
    </g>
    
    <g transform="translate(105, 115) scale(0.4)">
      <rect x="94" y="94" width="12" height="12" fill="#3498db"/>
      <g>
        <rect x="98" y="76" width="4" height="4" fill="#e74c3c"/>
        <animateTransform attributeName="transform" type="rotate" from="0 100 100" to="360 100 100" dur="4s" repeatCount="indefinite"/>
      </g>
    </g>
    
    <g transform="translate(145, 115) scale(0.4)">
      <rect x="94" y="94" width="12" height="12" fill="#3498db"/>
      <g>
        <rect x="98" y="76" width="4" height="4" fill="#e74c3c"/>
        <animateTransform attributeName="transform" type="rotate" from="0 100 100" to="360 100 100" dur="4s" repeatCount="indefinite"/>
      </g>
    </g>
    
    <!-- Additional 7 sets -->
    <g transform="translate(165, 100) scale(0.4)">
      <rect x="94" y="94" width="12" height="12" fill="#3498db"/>
      <g>
        <rect x="98" y="76" width="4" height="4" fill="#e74c3c"/>
        <animateTransform attributeName="transform" type="rotate" from="0 100 100" to="360 100 100" dur="4s" repeatCount="indefinite"/>
      </g>
    </g>
    
    <g transform="translate(175, 130) scale(0.4)">
      <rect x="94" y="94" width="12" height="12" fill="#3498db"/>
      <g>
        <rect x="98" y="76" width="4" height="4" fill="#e74c3c"/>
        <animateTransform attributeName="transform" type="rotate" from="0 100 100" to="360 100 100" dur="4s" repeatCount="indefinite"/>
      </g>
    </g>
    
    <g transform="translate(155, 160) scale(0.4)">
      <rect x="94" y="94" width="12" height="12" fill="#3498db"/>
      <g>
        <rect x="98" y="76" width="4" height="4" fill="#e74c3c"/>
        <animateTransform attributeName="transform" type="rotate" from="0 100 100" to="360 100 100" dur="4s" repeatCount="indefinite"/>
      </g>
    </g>
    
    <g transform="translate(175, 85) scale(0.4)">
      <rect x="94" y="94" width="12" height="12" fill="#3498db"/>
      <g>
        <rect x="98" y="76" width="4" height="4" fill="#e74c3c"/>
        <animateTransform attributeName="transform" type="rotate" from="0 100 100" to="360 100 100" dur="4s" repeatCount="indefinite"/>
      </g>
    </g>
    
    <g transform="translate(115, 145) scale(0.4)">
      <rect x="94" y="94" width="12" height="12" fill="#3498db"/>
      <g>
        <rect x="98" y="76" width="4" height="4" fill="#e74c3c"/>
        <animateTransform attributeName="transform" type="rotate" from="0 100 100" to="360 100 100" dur="4s" repeatCount="indefinite"/>
      </g>
    </g>
    
    <g transform="translate(135, 175) scale(0.4)">
      <rect x="94" y="94" width="12" height="12" fill="#3498db"/>
      <g>
        <rect x="98" y="76" width="4" height="4" fill="#e74c3c"/>
        <animateTransform attributeName="transform" type="rotate" from="0 100 100" to="360 100 100" dur="4s" repeatCount="indefinite"/>
      </g>
    </g>
    
    <g transform="translate(165, 190) scale(0.4)">
      <rect x="94" y="94" width="12" height="12" fill="#3498db"/>
      <g>
        <rect x="98" y="76" width="4" height="4" fill="#e74c3c"/>
        <animateTransform attributeName="transform" type="rotate" from="0 100 100" to="360 100 100" dur="4s" repeatCount="indefinite"/>
      </g>
    </g>
  </g>
</svg>