<?xml version="1.0" standalone="no"?>
<!DOCTYPE svg PUBLIC "-//W3C//DTD SVG 20010904//EN"
 "http://www.w3.org/TR/2001/REC-SVG-20010904/DTD/svg10.dtd">
<svg version="1.0" xmlns="http://www.w3.org/2000/svg"
 width="147.000000pt" height="147.000000pt" viewBox="0 0 147.000000 147.000000"
 preserveAspectRatio="xMidYMid meet">
<metadata>
Created by potrace 1.10, written by Peter Selinger 2001-2011
</metadata>
<g transform="translate(0.000000,147.000000) scale(0.100000,-0.100000)"
fill="#000000" stroke="none">
<path d="M44 1436 c-29 -29 -34 -41 -34 -83 0 -69 24 -142 82 -254 l50 -97
-35 -63 c-20 -35 -50 -106 -67 -158 -56 -166 -52 -370 10 -490 l19 -39 -24
-16 c-50 -33 -16 -127 62 -177 55 -34 88 -37 119 -8 l22 20 42 -21 c95 -49
259 -63 398 -34 85 17 216 67 276 105 l39 25 76 -43 c134 -76 258 -107 324
-79 84 35 85 152 3 321 -24 50 -50 99 -59 109 -13 18 -11 27 28 105 59 117 85
209 92 321 7 113 -8 212 -43 289 -22 49 -23 56 -9 71 23 25 18 62 -14 110 -50
75 -132 110 -172 74 -17 -15 -22 -15 -66 4 -79 33 -165 46 -276 39 -118 -7
-206 -31 -324 -89 l-83 -40 -97 50 c-115 59 -188 82 -256 82 -42 0 -54 -5 -83
-34z m155 13 c47 -10 144 -49 138 -55 -2 -2 -27 6 -57 17 -31 12 -78 20 -113
20 -50 1 -64 -3 -84 -24 -53 -53 -44 -156 26 -295 23 -45 39 -82 35 -82 -12 0
-103 208 -114 261 -26 133 34 189 169 158z m851 -3 c86 -19 160 -51 160 -71 0
-13 -6 -12 -40 5 -98 50 -270 65 -399 35 -77 -19 -186 -61 -224 -88 -20 -13
-32 -16 -39 -9 -7 7 10 21 58 45 171 85 339 114 484 83z m-735 -65 c44 -17 92
-39 107 -49 l28 -18 -78 -58 c-47 -35 -103 -91 -143 -141 l-66 -83 -35 71
c-43 87 -68 167 -68 220 0 30 7 45 31 69 28 29 34 30 87 25 31 -2 93 -19 137
-36z m778 12 c29 -8 72 -26 96 -40 l44 -25 -167 -166 -166 -167 -47 46 c-95
91 -279 239 -297 239 -4 0 -4 -6 0 -12 4 -8 3 -10 -2 -5 -5 5 -9 12 -9 15 0 4
-4 12 -8 18 -7 13 122 72 203 94 117 32 251 33 353 3z m226 13 c15 -8 42 -31
60 -51 26 -30 31 -44 29 -73 -3 -35 -5 -37 -40 -40 -34 -3 -43 2 -88 47 -40
40 -50 57 -50 84 0 18 3 37 7 40 11 12 53 8 82 -7z m-304 -436 l-280 -280 -30
30 -30 30 280 280 280 280 30 -30 30 -30 -280 -280z m-535 320 c0 -5 -4 -10
-8 -10 -5 0 -30 -16 -55 -36 -25 -20 -52 -34 -59 -32 -7 3 11 23 41 46 51 41
81 52 81 32z m46 -9 c-4 -5 22 -30 57 -54 78 -56 185 -143 250 -204 l49 -46
-26 -25 -25 -26 -38 32 c-142 119 -281 212 -354 235 -21 6 -39 14 -39 17 0 6
90 66 110 73 22 8 22 8 16 -2z m806 -58 c28 -32 58 -101 74 -170 19 -81 14
-225 -11 -318 -16 -59 -89 -225 -99 -225 -3 0 -8 5 -12 12 -4 7 -3 8 4 4 7 -4
12 -4 12 1 0 20 -211 283 -279 347 -17 17 -31 34 -31 40 0 11 310 326 321 326
3 0 13 -8 21 -17z m78 -54 c78 -183 61 -386 -52 -611 -21 -43 -40 -78 -43 -78
-2 0 -7 5 -11 12 -4 7 -3 8 4 4 7 -4 12 -1 12 9 0 8 12 39 26 68 100 197 117
417 43 576 -34 73 -33 71 -15 71 7 0 23 -23 36 -51z m-1085 -10 c-31 -31 -41
-36 -43 -24 -5 22 36 65 62 65 17 0 14 -6 -19 -41z m160 -3 c39 -19 79 -41 90
-50 11 -9 -13 1 -54 22 -54 27 -86 37 -121 37 -37 0 -46 3 -38 13 17 20 49 14
123 -22z m31 -44 c78 -39 217 -136 263 -186 l25 -27 -26 -25 -26 -26 -60 42
c-48 34 -70 43 -104 44 -39 1 -43 -1 -46 -26 -3 -29 26 -93 66 -146 l25 -33
-27 -27 -27 -27 -41 45 c-115 127 -208 293 -208 371 0 25 3 49 7 52 3 4 27 7
53 7 33 0 68 -11 126 -38z m-246 8 c0 -6 -19 -36 -42 -67 -29 -38 -44 -51 -46
-40 -2 9 14 38 35 66 37 49 53 61 53 41z m46 -38 c2 -49 24 -106 69 -179 14
-24 24 -43 21 -43 -9 0 -80 124 -102 179 -21 51 -22 57 -7 73 9 10 17 18 17
18 1 0 2 -21 2 -48z m-36 -17 c0 -46 119 -235 219 -348 28 -32 51 -62 51 -66
0 -4 -11 -18 -24 -30 l-24 -23 -43 46 c-23 26 -77 90 -120 143 -69 85 -109
119 -109 93 0 -13 26 -30 35 -22 5 4 5 1 1 -6 -8 -14 21 -53 143 -191 l74 -83
-170 -170 -170 -170 -21 33 c-44 72 -65 158 -65 269 -1 121 21 215 79 339 l35
76 24 -29 c13 -16 31 -31 39 -32 21 -3 20 1 -9 44 -14 20 -25 40 -25 45 0 13
62 97 72 97 4 0 8 -7 8 -15z m-106 -71 c3 -9 2 -12 -5 -9 -6 4 -9 1 -8 -6 1
-8 -16 -52 -39 -99 -100 -204 -110 -426 -27 -590 25 -49 21 -65 -9 -35 -24 24
-56 122 -68 207 -19 136 16 299 99 461 25 48 46 87 48 87 2 0 6 -7 9 -16z
m514 -120 c58 -38 66 -60 9 -25 -19 11 -46 21 -61 21 -21 0 -26 -5 -26 -26 0
-15 10 -42 21 -61 39 -62 11 -46 -30 17 -37 57 -51 107 -35 122 10 11 67 -11
122 -48z m335 -40 c29 -31 85 -98 125 -148 40 -50 77 -91 82 -91 4 0 12 -4 17
-9 5 -5 3 -6 -4 -2 -20 11 -15 -2 17 -49 l29 -43 -35 -47 c-20 -25 -34 -49
-31 -52 3 -3 20 15 38 40 18 26 36 44 41 41 9 -6 -16 -43 -71 -109 -22 -28
-24 -28 -18 -6 3 13 2 31 -3 40 -4 9 -26 54 -49 101 -45 94 -107 184 -121 175
-5 -3 -12 0 -16 6 -4 8 -3 9 4 5 7 -4 12 -3 12 2 0 12 -25 33 -32 27 -3 -3
-11 3 -19 12 -13 16 -12 17 4 4 33 -26 16 4 -33 59 l-49 55 21 22 c12 13 26
23 30 23 5 0 33 -25 61 -56z m-347 10 c47 -22 48 -27 14 -59 l-28 -27 -21 40
c-34 66 -27 75 35 46z m356 -198 c128 -182 155 -316 63 -316 -79 0 -248 94
-378 211 l-58 52 26 28 27 27 60 -44 c97 -71 168 -81 168 -22 0 26 -36 95 -76
144 l-33 41 27 27 27 27 48 -52 c27 -29 71 -84 99 -123z m-159 43 c21 -30 40
-72 44 -93 l6 -39 -39 6 c-21 4 -63 24 -93 45 -61 43 -84 77 -25 37 96 -65
139 -27 73 65 -17 23 -25 40 -17 38 7 -2 30 -29 51 -59z m-155 -14 c-8 -8 -58
42 -58 58 0 6 14 -3 32 -20 18 -18 29 -35 26 -38z m119 9 c28 -49 28 -54 2
-54 -22 0 -89 36 -89 48 0 12 44 52 54 49 6 -2 21 -21 33 -43z m-160 -51 l-27
-27 -30 29 -30 29 27 28 27 28 30 -30 31 -30 -28 -27z m-78 -78 l-25 -25 -29
30 -29 30 24 25 24 26 30 -31 31 -30 -26 -25z m522 -6 c23 -39 50 -94 60 -123
l17 -51 -46 -47 -45 -47 -63 23 c-62 23 -207 107 -220 128 -4 6 14 -3 40 -21
74 -51 174 -94 222 -95 94 -2 105 71 32 215 -25 49 -44 89 -42 89 2 0 22 -32
45 -71z m-586 -7 c-3 -3 0 -12 7 -19 9 -12 -21 -46 -160 -186 l-171 -171 -31
29 -31 29 163 164 c90 90 172 167 183 172 19 7 51 -7 40 -18z m185 -47 c17
-21 36 -19 19 3 -13 15 -12 16 4 3 9 -8 15 -16 12 -19 -7 -7 25 -42 38 -42 5
0 3 8 -4 18 -13 15 -12 16 3 3 10 -7 16 -17 13 -21 -11 -18 220 -160 260 -160
30 0 22 -19 -21 -50 -25 -17 -43 -35 -40 -37 3 -3 30 13 60 36 76 57 90 52 19
-8 -45 -38 -62 -47 -75 -40 -12 7 -34 0 -81 -26 -135 -74 -287 -111 -421 -102
-91 6 -156 25 -235 69 l-53 31 173 173 172 172 81 -73 c157 -143 298 -248 322
-238 15 5 10 23 -7 23 -6 0 -7 -5 -3 -12 4 -7 3 -8 -5 -4 -6 4 -9 11 -6 15 7
12 -83 73 -97 65 -6 -4 -8 -3 -5 3 4 6 -35 45 -86 86 -50 41 -110 94 -131 116
l-40 41 24 25 23 24 37 -29 c20 -16 43 -36 50 -45z m690 -272 c35 -166 -72
-203 -289 -102 -73 34 -83 41 -70 53 8 8 46 41 85 74 39 33 95 92 125 131 l54
72 42 -86 c23 -48 47 -112 53 -142z m-24 136 c71 -142 85 -270 34 -311 -30
-25 -115 -23 -192 3 -63 21 -178 76 -178 84 0 3 26 -8 58 -24 77 -39 155 -61
215 -61 69 0 107 38 107 107 0 60 -22 138 -61 216 -16 31 -27 57 -24 57 2 0
21 -32 41 -71z m-186 -19 c0 -15 -46 -60 -62 -60 -6 0 3 16 22 35 37 38 40 40
40 25z m-1059 -133 c47 -32 81 -85 77 -122 -3 -27 -7 -30 -41 -33 -35 -3 -44
2 -88 46 -40 40 -49 56 -49 84 0 19 3 38 7 41 14 14 61 6 94 -16z m851 -53
c-12 -8 -64 -35 -115 -59 -199 -93 -383 -107 -554 -43 -53 20 -93 48 -93 67 0
5 24 -4 52 -19 177 -95 391 -85 628 29 87 42 121 53 82 25z"/>
</g>
</svg>
